<svg xmlns="http://www.w3.org/2000/svg" viewBox="0 0 403.5 78.26"><defs><style>.cls-1{font-size:70px;font-family:SitkaBanner, Sitka;}.cls-2{letter-spacing:0em;}.cls-3{letter-spacing:0.01em;}.cls-4{letter-spacing:-0.01em;}.cls-5,.cls-6{fill:none;stroke:#000;stroke-miterlimit:10;}.cls-5{stroke-width:4px;}.cls-6{stroke-dasharray:20 20 20 20 20 20;}</style></defs><title>Asset 1</title><g id="Layer_2" data-name="Layer 2"><g id="Layer_1-2" data-name="Layer 1"><text class="cls-1" transform="translate(111.5 57.04)"><tspan class="cls-2">R</tspan><tspan x="39.08" y="0">ese</tspan><tspan class="cls-3" x="122.42" y="0">r</tspan><tspan class="cls-4" x="149.17" y="0">v</tspan><tspan x="179.45" y="0">eIT</tspan></text><polygon points="91.5 72 91.5 0 86.5 0 86.5 69 86.5 72 91.5 72"/><polygon points="88.5 16.21 65.5 16 68.95 19 88.5 19 88.5 16.21"/><polygon points="86.5 27 71.5 27 71.5 31.03 89.5 31.03 86.5 27"/><polygon points="86.5 44.16 72 47.62 70.5 47.98 86.5 47.98 86.5 44.16"/><rect x="72.5" y="44" width="14" height="4"/><polygon points="86.5 54.06 66.5 54 63.5 59 86.5 59 86.5 54.06"/><circle class="cls-5" cx="37" cy="38.5" r="35"/><circle class="cls-6" cx="37" cy="38.5" r="24.5"/></g></g></svg>