<svg xmlns="http://www.w3.org/2000/svg" width="802.598" height="621.294" viewBox="0 0 802.598 621.294">
  <g id="main-illustration" transform="translate(0)">
    <path id="Path_1" data-name="Path 1" d="M457.373,207.766a295.881,295.881,0,0,1-97.058-16.292c-41.849-14.469-76.133-34.427-101.9-59.319-48.738-47.085-88.7-54.182-113.629-51.845-26.99,2.53-42.7,16.351-42.855,16.491l-1.074-1.2c.159-.142,16.193-14.277,43.675-16.885,16.116-1.528,32.969,1.135,50.093,7.917,21.354,8.458,43.192,23.384,64.908,44.363,25.6,24.728,59.68,44.564,101.306,58.955,76.416,26.42,162.54,20.023,236.289-17.55,24.418-12.441,48.551-20.933,71.729-25.24,29.227-5.432,56.946-4.171,82.391,3.745,55.916,17.4,94.109,16.473,116.3,12.638,23.946-4.139,34.811-12.422,34.917-12.505l.988,1.269c-.45.35-11.293,8.614-35.632,12.82-22.369,3.867-60.835,4.8-117.053-12.687C693.85,134.736,636.2,154.3,597.859,173.836a308.632,308.632,0,0,1-117.089,33.032Q469.03,207.766,457.373,207.766Z" transform="translate(-100.859 -66.492)" fill="#3f3d56"/>
    <circle id="Ellipse_1" data-name="Ellipse 1" cx="16.295" cy="16.295" r="16.295" transform="translate(336.974 128.637)" fill="#6c63ff"/>
    <circle id="Ellipse_2" data-name="Ellipse 2" cx="16.295" cy="16.295" r="16.295" transform="translate(589.423 63.514)" fill="#6c63ff"/>
    <circle id="Ellipse_3" data-name="Ellipse 3" cx="16.295" cy="16.295" r="16.295" transform="translate(64.425 0)" fill="#6c63ff"/>
    <path id="Path_2" data-name="Path 2" d="M685.6,509.71V667.151h24.755V523.572h99.019V667.15h24.755V352.269H809.377c-8.2,0-20.794,42.723-20.794,85.652,0,32.358,3.779,60.089,9.152,71.789Zm123.774,0h-.241c.081-.176.161-.362.241-.545Z" transform="translate(-215.481 -120.196)" fill="#3f3d56"/>
    <path id="Path_3" data-name="Path 3" d="M790.734,255.342h0c-20.32,0-36.792,18.281-36.792,40.831v28.651h8.812l5.1-10.615-1.275,10.615h56.637l4.638-9.65-1.159,9.65h6.377v-22.5C833.072,276.378,814.117,255.342,790.734,255.342Z" transform="translate(-228.877 -101.196)" fill="#2f2e41"/>
    <path id="Path_4" data-name="Path 4" d="M717.081,488.168l-22.59,9.6-78.5,63.817a23.1,23.1,0,0,0-5.083,12.424c-.565,7.342-24.284,45.745-15.813,50.828S634.063,645.169,635.757,635s10.73-53.651,10.73-53.651l75.677-67.77Z" transform="translate(-197.381 -146.835)" fill="#2f2e41"/>
    <path id="Path_5" data-name="Path 5" d="M623.03,659.715l-9.6,28.238s10.166,10.73,5.083,19.766V738.78h-7.906L608.347,722.4s-9.005,16.171-13.554,16.378c-9.535.434-28.418,3.825-28.982-1.257s14.3-10.038,14.3-10.038L595.922,684l6.777-26.543Z" transform="translate(-191.996 -180.019)" fill="#2f2e41"/>
    <path id="Path_6" data-name="Path 6" d="M786.5,472.427s5.083,49.7-9.6,58.734S697.266,569,697.266,569s27.673,25.978,22.025,32.191-31.061,23.155-34.45,19.766-41.227-44.051-36.709-57.04,67.205-55.345,67.205-55.345l7.342-26.543,2.259-21.461,23.72-15.248Z" transform="translate(-208.063 -138.435)" fill="#2f2e41"/>
    <circle id="Ellipse_4" data-name="Ellipse 4" cx="23.543" cy="23.543" r="23.543" transform="translate(529.016 171.195)" fill="#ffb9b9"/>
    <path id="Path_7" data-name="Path 7" d="M804.231,317.825s-1.13,21.461,16.378,28.238-43.486,50.828-43.486,50.828V347.756s7.907-8.471,0-21.461Z" transform="translate(-233.42 -113.444)" fill="#ffb9b9"/>
    <path id="Path_8" data-name="Path 8" d="M849.823,443.211l-4.518,22.025-13.554,75.677s11.3,32.191-3.953,31.626-7.907-35.015-7.907-35.015l7.907-62.687V450.553Z" transform="translate(-241.458 -138.022)" fill="#ffb9b9"/>
    <path id="Path_9" data-name="Path 9" d="M727.91,429.865l-5.083,19.766-23.155,55.91s-15.813,26.543-2.824,25.979,12.989-25.979,12.989-25.979l26.543-45.18V434.948Z" transform="translate(-216.681 -135.406)" fill="#ffb9b9"/>
    <path id="Path_10" data-name="Path 10" d="M727.409,634.978l18.637,17.507s12.989-2.824,18.072,12.425,8.471,24.849,8.471,24.849l-6.777,3.953-8.472-11.86s-5.083,21.461-10.166,23.155-30.5,12.989-28.237,0l12.424-18.072s1.694-20.331-3.388-22.025-18.637-18.637-18.637-18.637Z" transform="translate(-220.133 -175.613)" fill="#2f2e41"/>
    <path id="Path_11" data-name="Path 11" d="M805.727,494.295s-53.087-19.2-56.475-17.507a25.471,25.471,0,0,1-7.955,2.065l.048-7.712s17.507-6.212,27.108-2.259,38.968,21.461,38.968,21.461Z" transform="translate(-226.398 -142.796)" fill="#3f3d56"/>
    <path id="Path_12" data-name="Path 12" d="M773.478,391.719s15.248-17.507,19.766-28.237A27.726,27.726,0,0,1,807.9,349.069s33.911,7.636,33.346,21.19-21.461,34.45-21.461,34.45,2.824,75.112-12.425,73.982a32.707,32.707,0,0,1-6.777-13.554c-1.694-7.906-54.216-16.378-54.216-16.378s-4.518,7.906-5.083,4.518,4.518-86.407,4.518-86.407l26.931-17.8Z" transform="translate(-226.387 -119.569)" fill="#d0cde1"/>
    <path id="Path_13" data-name="Path 13" d="M853.488,368.4l.378.212a7.792,7.792,0,0,1,3.979,6.8l-.006,41.912a7.853,7.853,0,0,0,2.794,5.977c2.176,1.85,4.193,4.517.03,5.9-6.777,2.259-33.32,13.554-33.885,9.6s-1.694-8.471,0-8.471c1.326,0,9.229-40.5,15.579-57.812a7.793,7.793,0,0,1,11.132-4.118Z" transform="translate(-242.978 -123.162)" fill="#d0cde1"/>
    <path id="Path_14" data-name="Path 14" d="M750.318,368.752l-7.906,2.259-9.036,38.968s-10.73,2.259-7.342,6.212,17.507,14.119,17.507,14.119Z" transform="translate(-223.276 -123.427)" fill="#d0cde1"/>
    <path id="Path_15" data-name="Path 15" d="M802.678,267.438a19.3,19.3,0,0,0-15.225-7.769h-.722c-13.927,0-25.217,12.6-25.217,28.148h4.667l.754-5.736,1.1,5.736h27.677l2.319-4.853-.58,4.853H802.9q3.811,18.927-10.952,37.855h9.275l4.638-9.706-1.159,9.706h17.681l3.478-22.325C825.86,286.628,816.146,272.45,802.678,267.438Z" transform="translate(-230.361 -102.044)" fill="#2f2e41"/>
    <path id="Path_16" data-name="Path 16" d="M214.582,550.9c5.941-12.936,10.12-43.6,10.12-79.375,0-47.465-13.921-94.7-22.991-94.7H174.34V724.977h27.371V566.227H311.193v158.75h27.371V550.9Zm-12.872-.6c.089.2.177.408.266.6h-.266Z" transform="translate(-115.263 -125.009)" fill="#3f3d56"/>
    <path id="Path_17" data-name="Path 17" d="M363.352,514.342s32.963,13.668,22.511,21.707S353.7,526.4,354.508,523.99s-3.216-8.04-3.216-8.04Z" transform="translate(-149.949 -151.965)" fill="#9f616a"/>
    <path id="Path_18" data-name="Path 18" d="M329.312,380.342l10.452,9.648,2.412,28.139,8.04,29.747s13.668,28.139,11.256,33.767,2.412,7.236,2.412,7.236l-18.492,7.236s-20.1-22.511-20.1-27.335S329.312,380.342,329.312,380.342Z" transform="translate(-144.852 -125.699)" fill="#575a88"/>
    <path id="Path_19" data-name="Path 19" d="M329.312,380.342l10.452,9.648,2.412,28.139,8.04,29.747s13.668,28.139,11.256,33.767,2.412,7.236,2.412,7.236l-18.492,7.236s-20.1-22.511-20.1-27.335S329.312,380.342,329.312,380.342Z" transform="translate(-144.852 -125.699)" opacity="0.1"/>
    <path id="Path_20" data-name="Path 20" d="M452.109,738.578s-4.02,18.492-4.824,20.1,15.276,7.236,15.276,7.236l19.3-13.668s-8.04-17.688-8.04-20.9Z" transform="translate(-168.76 -194.502)" fill="#575a88"/>
    <path id="Path_21" data-name="Path 21" d="M308.547,516.342l5.628,6.432s116.577,14.472,118.989,36.983,19.3,128.637,9.648,131.853-34.571,15.276-34.571,8.844-16.08-94.87-12.864-110.949c0,0-139.088-17.687-142.3-37.787s3.216-28.943,3.216-28.943Z" transform="translate(-130.519 -152.357)" fill="#2f2e41"/>
    <path id="Path_22" data-name="Path 22" d="M308.547,516.342l5.628,6.432s116.577,14.472,118.989,36.983,19.3,128.637,9.648,131.853-34.571,15.276-34.571,8.844-16.08-94.87-12.864-110.949c0,0-139.088-17.687-142.3-37.787s3.216-28.943,3.216-28.943Z" transform="translate(-130.519 -152.357)" opacity="0.1"/>
    <path id="Path_23" data-name="Path 23" d="M449.128,760.67s-3.216-7.236-4.824-4.824S437.068,786.4,442.7,786.4s57.083,12.864,64.318,11.256,20.9.8,19.3-7.236-9.648-8.844-9.648-8.844-29.747-17.688-31.355-26.531-10.452-4.02-10.452-4.02v5.628S457.971,769.513,449.128,760.67Z" transform="translate(-167.387 -198.102)" fill="#2f2e41"/>
    <path id="Path_24" data-name="Path 24" d="M258.975,303.049s5.628,27.335-6.432,29.747,15.276,18.492,15.276,18.492l17.688,9.648,12.864-12.864s-11.658-23.717-2.814-41.4S258.975,303.049,258.975,303.049Z" transform="translate(-129.99 -109.508)" fill="#9f616a"/>
    <path id="Path_25" data-name="Path 25" d="M298.37,348.072l-12.864,12.864-17.688-9.648s-27.335-16.08-15.276-18.492c7.758-1.552,8.192-13.418,7.525-21.683a74.757,74.757,0,0,0-1.093-8.064s45.425-14.07,36.581,3.618a30.843,30.843,0,0,0-2.766,8.651C290.081,331.212,298.37,348.072,298.37,348.072Z" transform="translate(-129.99 -109.508)" fill="#9f616a"/>
    <path id="Path_26" data-name="Path 26" d="M265.433,703.768v18.492h30.551l2.412-7.236-3.216-19.3Z" transform="translate(-52.03 -136.377)" fill="#575a88"/>
    <path id="Path_27" data-name="Path 27" d="M209.292,533.99s0,47.435,19.3,49.043,88.438,10.452,88.438,10.452,4.02,78.79,11.256,104.517.8,27.335,7.236,28.943,33.767-4.02,32.963-9.648-4.02-147.932-4.02-147.932,7.236-30.551-89.242-45.023Z" transform="translate(-122.114 -153.926)" fill="#2f2e41"/>
    <path id="Path_28" data-name="Path 28" d="M366.685,782.167s-4.824-10.452-5.628-7.236-10.452,31.355-.8,33.767,40.2,15.276,60.3,14.472,22.511-1.608,22.511-1.608,5.628-8.04-1.608-12.864-36.983-32.963-38.591-36.179-13.668-5.628-13.668,0S372.313,789.4,366.685,782.167Z" transform="translate(-150.871 -201.912)" fill="#2f2e41"/>
    <path id="Path_29" data-name="Path 29" d="M297.873,306.667a30.844,30.844,0,0,0-2.766,8.651c-4,2.42-6.681,1.8-11.706,1.8-7.453,0-10.46-9.527-15.276-14.472-.378-4.591-6.834.4-6.834.4S306.717,288.979,297.873,306.667Z" transform="translate(-132.307 -109.508)" opacity="0.1"/>
    <circle id="Ellipse_5" data-name="Ellipse 5" cx="26.531" cy="26.531" r="26.531" transform="translate(122.553 154.145)" fill="#9f616a"/>
    <path id="Path_30" data-name="Path 30" d="M314.6,381.911s-4.02,28.943-6.432,39.395-5.628,58.691-7.236,65.122-11.256,8.04-30.551,5.628a36.271,36.271,0,0,0-3.65-.273c-11.883-.378-25.478,4.068-38.06,7.557-7.236,2.01-14.142,3.7-20.2,3.972-9.165.418-11.851-9.744-11.537-20.743.3-10.235,3.2-21.209,5.909-25.084,4.88-6.979.08-69.633,1.881-90.295v-.008c.273-3.152.7-5.322,1.335-6.175,4.824-6.432,36.179-22.511,39.692-21.86s33.47,19.448,33.47,19.448c7.236,0,7-7.847,7-7.847s5.057,9.455,14.7,11.867S314.6,381.911,314.6,381.911Z" transform="translate(-119.687 -117.62)" fill="#575a88"/>
    <path id="Path_31" data-name="Path 31" d="M274.637,521.984s51.789,1.649,42.717,7.8-49.271,11.781-50.075,3.741S274.637,521.984,274.637,521.984Z" transform="translate(-133.47 -153.463)" fill="#9f616a"/>
    <path id="Path_32" data-name="Path 32" d="M266.735,498.489c.169,3.087-8.136,10.042-10.822,14.745-1.487,2.6-13-.828-27.239-7.188a279.3,279.3,0,0,1-31.733-16.771c.3-10.235,3.2-21.209,5.909-25.084,4.88-6.979.08-69.633,1.881-90.295v-.008a8.915,8.915,0,0,1,1.335-.547h9.648c32.963,15.276-4.824,81.2-4.824,81.2s49.847,41,54.671,42.611A1.445,1.445,0,0,1,266.735,498.489Z" transform="translate(-119.693 -124.327)" opacity="0.1"/>
    <path id="Path_33" data-name="Path 33" d="M209.18,367.342h-9.648s-8.844,2.412-16.08,18.492S149.686,451.76,173,471.055s73.162,41.807,76.378,36.179,14.472-14.472,9.648-16.08-54.671-42.611-54.671-42.611S242.143,382.618,209.18,367.342Z" transform="translate(-113.159 -123.15)" fill="#575a88"/>
    <path id="Path_34" data-name="Path 34" d="M272.892,266.32s1.164-16.118,15.528-9.546,13.426-11.542,9.086-14.743-4.2-3.993-20.079-1.851-46.7,5.77-36.731,37.691,18.992,23.709,18.992,23.709-7.922-28.724.1-23.252l8.026,5.472,4.236-.9Z" transform="translate(-127.889 -97.989)" fill="#2f2e41"/>
    <path id="Path_35" data-name="Path 35" d="M900.94,555.254c0-14.512-107.838-26.276-240.862-26.276s-240.862,11.764-240.862,26.276c0,5.624,16.208,10.835,43.793,15.109V750.132h13.138V572.216c44.182,5.7,110.179,9.313,183.93,9.313,74.361,0,140.843-3.677,185.025-9.454V750.132h13.138V570.19C885.161,565.949,900.94,560.8,900.94,555.254Z" transform="translate(-163.263 -154.834)" fill="#3f3d56"/>
    <ellipse id="Ellipse_6" data-name="Ellipse 6" cx="49.043" cy="12.06" rx="49.043" ry="12.06" transform="translate(477.951 376.848)" fill="#f2f2f2"/>
    <ellipse id="Ellipse_7" data-name="Ellipse 7" cx="40.199" cy="9.885" rx="40.199" ry="9.885" transform="translate(486.794 379.022)" fill="#d0cde1"/>
    <ellipse id="Ellipse_8" data-name="Ellipse 8" cx="49.043" cy="12.06" rx="49.043" ry="12.06" transform="translate(295.447 386.495)" fill="#f2f2f2"/>
    <ellipse id="Ellipse_9" data-name="Ellipse 9" cx="40.199" cy="9.885" rx="40.199" ry="9.885" transform="translate(304.291 388.67)" fill="#d0cde1"/>
    <ellipse id="Ellipse_10" data-name="Ellipse 10" cx="23.38" cy="3.692" rx="23.38" ry="3.692" transform="translate(502.472 380.673)" fill="#9f616a"/>
    <ellipse id="Ellipse_11" data-name="Ellipse 11" cx="7.383" cy="3.999" rx="7.383" ry="3.999" transform="translate(506.01 374.981)" fill="#6c63ff"/>
    <ellipse id="Ellipse_12" data-name="Ellipse 12" cx="7.383" cy="3.999" rx="7.383" ry="3.999" transform="translate(503.241 374.981)" fill="#6c63ff"/>
    <ellipse id="Ellipse_13" data-name="Ellipse 13" cx="7.383" cy="3.999" rx="7.383" ry="3.999" transform="translate(535.543 375.904)" fill="#6c63ff"/>
    <ellipse id="Ellipse_14" data-name="Ellipse 14" cx="7.383" cy="3.999" rx="7.383" ry="3.999" transform="translate(518.623 374.981)" fill="#6c63ff"/>
    <ellipse id="Ellipse_15" data-name="Ellipse 15" cx="7.383" cy="3.999" rx="7.383" ry="3.999" transform="translate(531.236 374.981)" fill="#6c63ff"/>
    <path id="Path_36" data-name="Path 36" d="M771.71,527.276q-20.015,6.792-44.914,0v-.623a18.347,18.347,0,0,1,17.422-18.335,115.221,115.221,0,0,1,11.878.015,16.578,16.578,0,0,1,15.614,16.592Z" transform="translate(-223.555 -150.756)" fill="#3f3d56"/>
    <path id="Path_37" data-name="Path 37" d="M765.2,550.724a147.583,147.583,0,0,1-29.659,0,9.476,9.476,0,0,1-8.551-9.416h46.76A9.476,9.476,0,0,1,765.2,550.724Z" transform="translate(-223.593 -157.251)" fill="#3f3d56"/>
    <path id="Path_38" data-name="Path 38" d="M745.426,515.315a8.8,8.8,0,0,1-6.768,0,8.8,8.8,0,0,1,6.768,0Z" transform="translate(-225.881 -152.024)" fill="#d0cde1"/>
    <path id="Path_39" data-name="Path 39" d="M753.844,518.759a8.8,8.8,0,0,1-6.768,0,8.8,8.8,0,0,1,6.768,0Z" transform="translate(-227.531 -152.699)" fill="#d0cde1"/>
    <path id="Path_40" data-name="Path 40" d="M754.61,512.637a8.8,8.8,0,0,1-6.768,0A8.8,8.8,0,0,1,754.61,512.637Z" transform="translate(-227.681 -151.499)" fill="#d0cde1"/>
    <path id="Path_41" data-name="Path 41" d="M770.3,512.637a8.8,8.8,0,0,1-6.768,0,8.8,8.8,0,0,1,6.768,0Z" transform="translate(-230.756 -151.499)" fill="#d0cde1"/>
    <path id="Path_42" data-name="Path 42" d="M766.089,516.081a8.8,8.8,0,0,1-6.768,0,8.8,8.8,0,0,1,6.768,0Z" transform="translate(-229.931 -152.174)" fill="#d0cde1"/>
    <ellipse id="Ellipse_16" data-name="Ellipse 16" cx="23.38" cy="3.692" rx="23.38" ry="3.692" transform="translate(320.772 390.321)" fill="#9f616a"/>
    <ellipse id="Ellipse_17" data-name="Ellipse 17" cx="7.383" cy="3.999" rx="7.383" ry="3.999" transform="translate(324.311 384.629)" fill="#6c63ff"/>
    <ellipse id="Ellipse_18" data-name="Ellipse 18" cx="7.383" cy="3.999" rx="7.383" ry="3.999" transform="translate(321.542 384.629)" fill="#6c63ff"/>
    <ellipse id="Ellipse_19" data-name="Ellipse 19" cx="7.383" cy="3.999" rx="7.383" ry="3.999" transform="translate(353.843 385.552)" fill="#6c63ff"/>
    <ellipse id="Ellipse_20" data-name="Ellipse 20" cx="7.383" cy="3.999" rx="7.383" ry="3.999" transform="translate(336.923 384.629)" fill="#6c63ff"/>
    <ellipse id="Ellipse_21" data-name="Ellipse 21" cx="7.383" cy="3.999" rx="7.383" ry="3.999" transform="translate(349.536 384.629)" fill="#6c63ff"/>
    <path id="Path_43" data-name="Path 43" d="M545.71,539.276q-20.015,6.792-44.914,0v-.623a18.347,18.347,0,0,1,17.422-18.335,115.239,115.239,0,0,1,11.878.015,16.578,16.578,0,0,1,15.614,16.592Z" transform="translate(-179.255 -153.108)" fill="#3f3d56"/>
    <path id="Path_44" data-name="Path 44" d="M539.2,562.724a147.584,147.584,0,0,1-29.659,0,9.476,9.476,0,0,1-8.551-9.416h46.76A9.476,9.476,0,0,1,539.2,562.724Z" transform="translate(-179.292 -159.604)" fill="#3f3d56"/>
    <path id="Path_45" data-name="Path 45" d="M519.426,527.315a8.8,8.8,0,0,1-6.768,0,8.8,8.8,0,0,1,6.768,0Z" transform="translate(-181.58 -154.376)" fill="#d0cde1"/>
    <path id="Path_46" data-name="Path 46" d="M527.844,530.759a8.8,8.8,0,0,1-6.768,0,8.8,8.8,0,0,1,6.768,0Z" transform="translate(-183.23 -155.051)" fill="#d0cde1"/>
    <path id="Path_47" data-name="Path 47" d="M528.61,524.637a8.8,8.8,0,0,1-6.768,0A8.8,8.8,0,0,1,528.61,524.637Z" transform="translate(-183.38 -153.851)" fill="#d0cde1"/>
    <path id="Path_48" data-name="Path 48" d="M544.3,524.637a8.8,8.8,0,0,1-6.768,0A8.8,8.8,0,0,1,544.3,524.637Z" transform="translate(-186.455 -153.851)" fill="#d0cde1"/>
    <path id="Path_49" data-name="Path 49" d="M540.089,528.081a8.8,8.8,0,0,1-6.768,0A8.8,8.8,0,0,1,540.089,528.081Z" transform="translate(-185.63 -154.526)" fill="#d0cde1"/>
    <path id="Path_50" data-name="Path 50" d="M803.035,543.277l.113,2.49.144,3.23s-14.835.838-17.823,4a1.82,1.82,0,0,0-.191.219l-5.942-1.3-.015-2.927.241-.132.128-.067A54.084,54.084,0,0,1,803.035,543.277Z" transform="translate(-233.852 -157.637)" fill="#6c63ff"/>
    <path id="Path_51" data-name="Path 51" d="M803.094,543.277l.113,2.49c-6.578.2-19.028,4.125-19.028,4.125l-4.557-1.039a53.933,53.933,0,0,1,23.472-5.576Z" transform="translate(-233.91 -157.637)" opacity="0.1"/>
    <path id="Path_52" data-name="Path 52" d="M779.69,550.13l4.43,1.106,1.349,3.1a1.815,1.815,0,0,0-.191.219l-5.942-1.3-.015-2.927.241-.132Z" transform="translate(-233.852 -158.981)" fill="#fff" opacity="0.1"/>
    <path id="Path_53" data-name="Path 53" d="M580.035,556.277l.113,2.49.144,3.23s-14.835.838-17.823,4a1.814,1.814,0,0,0-.191.219l-5.942-1.3-.015-2.927.241-.132.128-.067A54.083,54.083,0,0,1,580.035,556.277Z" transform="translate(-190.139 -160.186)" fill="#6c63ff"/>
    <path id="Path_54" data-name="Path 54" d="M580.094,556.277l.113,2.49c-6.578.2-19.028,4.125-19.028,4.125l-4.557-1.039a53.933,53.933,0,0,1,23.472-5.576Z" transform="translate(-190.198 -160.186)" opacity="0.1"/>
    <path id="Path_55" data-name="Path 55" d="M556.69,563.13l4.43,1.106,1.349,3.1a1.814,1.814,0,0,0-.191.219l-5.942-1.3-.015-2.927.241-.132Z" transform="translate(-190.139 -161.529)" fill="#fff" opacity="0.1"/>
    <path id="Path_56" data-name="Path 56" d="M913.976,441.806a14.84,14.84,0,0,0-4.38-3.026V407.54a1.381,1.381,0,0,0-1.381-1.381h-7.733a1.381,1.381,0,0,0-1.381,1.381v30.64a14.02,14.02,0,0,0-9.606,13.3V518.5a6.141,6.141,0,0,0,6.141,6.141H912.2a6.113,6.113,0,0,0,6.112-6.113V452.274a14.757,14.757,0,0,0-4.337-10.468Z" transform="translate(-255.448 -130.759)" fill="#3f3d56"/>
    <rect id="Rectangle_2" data-name="Rectangle 2" width="28.819" height="38.07" transform="translate(634.047 330.547)" fill="#6c63ff"/>
    <path id="Path_57" data-name="Path 57" d="M912.409,408.295h-.623v-.754a1.381,1.381,0,0,0-1.381-1.381h-7.734a1.381,1.381,0,0,0-1.381,1.381v.754h-.623v3.2h.623v16.366h10.5V411.5h.623Z" transform="translate(-257.638 -130.76)" fill="#6c63ff"/>
    <path id="Path_58" data-name="Path 58" d="M625.2,483.449c-.763-1.628-1.365-2.779-1.575-3.175-12.936,3.192-21.567.495-22.928.018a76.051,76.051,0,0,0-6.5,16.995c-1.517,6.948-.637,11.606,2.617,13.845l.1.069.021.014c3.592,2.367,7.018,4.463,10.183,6.23q.64.356,1.206.662l.04.022.029.036a19.266,19.266,0,0,1,1.212,1.709,6.723,6.723,0,0,1,1.229,3.323v34.51l-.218,0c-8.252.168-13.359,1.567-13.359,2.766,0,1.316,6.124,2.782,14.913,2.782s14.912-1.466,14.912-2.782c0-1.182-5.021-2.573-13.133-2.76l-.219-.005.2-31.922a14.078,14.078,0,0,1,1.468-6.228c.164-.325.34-.642.523-.94.147-.24.3-.474.464-.7l.029-.041.044-.024q.61-.333,1.294-.721l.054-.029c3-1.692,6.223-3.675,9.594-5.9,3.01-1.984,4.057-5.994,3.115-11.918A63.626,63.626,0,0,0,625.2,483.449Z" transform="translate(-197.422 -145.287)" fill="#d0cde1"/>
    <path id="Path_59" data-name="Path 59" d="M626.385,514.721c-3.534,2.329-6.452,4.076-8.683,5.335h0a50.814,50.814,0,0,0-9.762.274c-2.287-1.277-5.373-3.108-9.169-5.609-.036-.024-.072-.048-.108-.074v0c-3.482-2.4-3.568-7.468-2.435-12.655,2.882-.32,7.476-.18,13.65,2.025,7.31,2.612,14.963,1.135,19.4-.208C630,508.384,629.556,512.63,626.385,514.721Z" transform="translate(-197.834 -149.519)" fill="#6c63ff"/>
    <circle id="Ellipse_22" data-name="Ellipse 22" cx="1.001" cy="1.001" r="1.001" transform="translate(406.538 348.593)" fill="#6c63ff"/>
    <circle id="Ellipse_23" data-name="Ellipse 23" cx="1.001" cy="1.001" r="1.001" transform="translate(403.736 357.798)" fill="#fff"/>
    <circle id="Ellipse_24" data-name="Ellipse 24" cx="0.6" cy="0.6" r="0.6" transform="translate(409.339 351.394)" fill="#6c63ff"/>
    <circle id="Ellipse_25" data-name="Ellipse 25" cx="0.6" cy="0.6" r="0.6" transform="translate(411.741 362.801)" fill="#fff"/>
    <circle id="Ellipse_26" data-name="Ellipse 26" cx="0.6" cy="0.6" r="0.6" transform="translate(407.538 363.401)" fill="#fff"/>
    <circle id="Ellipse_27" data-name="Ellipse 27" cx="0.6" cy="0.6" r="0.6" transform="translate(419.745 343.389)" fill="#6c63ff"/>
    <path id="Path_60" data-name="Path 60" d="M683.578,442.984c-.763-1.628-1.365-2.779-1.575-3.175-12.936,3.192-21.567.495-22.928.018a76.051,76.051,0,0,0-6.5,16.995c-1.517,6.948-.637,11.606,2.617,13.845l.1.069.021.014c3.592,2.367,7.018,4.463,10.183,6.23q.64.356,1.206.662l.04.022.028.036a19.265,19.265,0,0,1,1.211,1.709,6.722,6.722,0,0,1,1.229,3.323v34.51l-.218,0c-8.252.168-13.359,1.567-13.359,2.766,0,1.316,6.124,2.782,14.913,2.782s14.912-1.466,14.912-2.782c0-1.182-5.021-2.573-13.133-2.76l-.219-.005.2-31.922a14.078,14.078,0,0,1,1.468-6.228c.164-.325.34-.642.523-.94.147-.24.3-.474.464-.7l.029-.041.044-.024q.609-.333,1.294-.721l.054-.029c3-1.692,6.223-3.675,9.593-5.9,3.01-1.984,4.057-5.994,3.115-11.918A63.689,63.689,0,0,0,683.578,442.984Z" transform="translate(-208.865 -137.355)" fill="#d0cde1"/>
    <path id="Path_61" data-name="Path 61" d="M684.763,474.256c-3.534,2.329-6.452,4.076-8.683,5.335h0a50.812,50.812,0,0,0-9.762.274c-2.287-1.277-5.373-3.108-9.169-5.609-.036-.024-.072-.048-.108-.074v0c-3.482-2.4-3.568-7.468-2.435-12.655,2.882-.32,7.476-.18,13.65,2.025,7.31,2.611,14.963,1.135,19.4-.208C688.379,467.918,687.934,472.164,684.763,474.256Z" transform="translate(-209.277 -141.587)" fill="#6c63ff"/>
    <circle id="Ellipse_28" data-name="Ellipse 28" cx="1.001" cy="1.001" r="1.001" transform="translate(453.473 316.059)" fill="#6c63ff"/>
    <circle id="Ellipse_29" data-name="Ellipse 29" cx="1.001" cy="1.001" r="1.001" transform="translate(450.671 325.265)" fill="#fff"/>
    <circle id="Ellipse_30" data-name="Ellipse 30" cx="0.6" cy="0.6" r="0.6" transform="translate(456.275 318.861)" fill="#6c63ff"/>
    <circle id="Ellipse_31" data-name="Ellipse 31" cx="0.6" cy="0.6" r="0.6" transform="translate(458.676 330.267)" fill="#fff"/>
    <circle id="Ellipse_32" data-name="Ellipse 32" cx="0.6" cy="0.6" r="0.6" transform="translate(454.474 330.868)" fill="#fff"/>
    <circle id="Ellipse_33" data-name="Ellipse 33" cx="0.6" cy="0.6" r="0.6" transform="translate(466.681 310.856)" fill="#6c63ff"/>
  </g>
</svg>
