<svg width="363" height="88" viewBox="0 0 363 88" fill="none" xmlns="http://www.w3.org/2000/svg">
<path d="M98.4622 60.5378L102.413 59.6978C102.828 59.5941 103.17 59.3763 103.44 59.0444C103.73 58.7126 103.876 58.3185 103.876 57.8622V23.2667C103.876 22.7896 103.73 22.3852 103.44 22.0533C103.17 21.7215 102.828 21.5037 102.413 21.4L98.4622 20.5911V19.1289H114.204C116.32 19.1289 118.176 19.2741 119.773 19.5644C121.37 19.8548 122.739 20.2593 123.88 20.7778C125.041 21.2756 125.996 21.8667 126.742 22.5511C127.51 23.2148 128.111 23.9407 128.547 24.7289C129.003 25.517 129.314 26.3467 129.48 27.2178C129.667 28.0681 129.76 28.9185 129.76 29.7689C129.76 31.5319 129.439 33.0978 128.796 34.4667C128.173 35.8356 127.375 37.0074 126.4 37.9822C125.446 38.957 124.399 39.7556 123.258 40.3778C122.117 40.9793 121.049 41.4044 120.053 41.6533L131.844 57.2089C132.031 57.4578 132.259 57.7274 132.529 58.0178C132.799 58.2874 133.079 58.5467 133.369 58.7956C133.659 59.0237 133.95 59.2311 134.24 59.4178C134.551 59.5837 134.841 59.6978 135.111 59.76L138.596 60.5378V62H132.031C131.098 62 130.32 61.9274 129.698 61.7822C129.096 61.637 128.567 61.4089 128.111 61.0978C127.655 60.7659 127.23 60.3615 126.836 59.8844C126.462 59.3867 126.027 58.7956 125.529 58.1111L114.516 42.8978L109.476 41.9333V57.8622C109.476 58.3393 109.59 58.7333 109.818 59.0444C110.067 59.3556 110.399 59.5733 110.813 59.6978L115.418 60.5378V62H98.4622V60.5378ZM109.476 40.0044C109.704 40.0667 110.025 40.1185 110.44 40.16C110.855 40.2015 111.301 40.243 111.778 40.2844C112.255 40.3052 112.711 40.3259 113.147 40.3467C113.603 40.3467 113.976 40.3467 114.267 40.3467C115.884 40.3467 117.284 40.0874 118.467 39.5689C119.67 39.0296 120.665 38.3244 121.453 37.4533C122.241 36.5822 122.833 35.5763 123.227 34.4356C123.621 33.2948 123.818 32.1022 123.818 30.8578C123.818 29.1985 123.59 27.7778 123.133 26.5956C122.677 25.3926 122.013 24.4074 121.142 23.64C120.292 22.8726 119.234 22.3126 117.969 21.96C116.704 21.5867 115.262 21.4 113.644 21.4H109.476V40.0044ZM163.069 55.4978V57.7378C162.447 58.3393 161.721 58.9407 160.891 59.5422C160.061 60.1437 159.138 60.683 158.122 61.16C157.127 61.637 156.058 62.0207 154.918 62.3111C153.777 62.6222 152.584 62.7778 151.34 62.7778C149.307 62.7778 147.451 62.4356 145.771 61.7511C144.112 61.0667 142.681 60.0607 141.478 58.7333C140.275 57.3852 139.341 55.7363 138.678 53.7867C138.014 51.837 137.682 49.5867 137.682 47.0356C137.682 44.92 137.993 42.8978 138.615 40.9689C139.258 39.0193 140.181 37.3081 141.384 35.8356C142.587 34.363 144.049 33.1911 145.771 32.32C147.513 31.4281 149.473 30.9822 151.651 30.9822C153.497 30.9822 155.135 31.3244 156.567 32.0089C157.998 32.6933 159.201 33.5852 160.175 34.6844C161.15 35.7837 161.887 37.0489 162.384 38.48C162.882 39.8904 163.131 41.3215 163.131 42.7733C163.131 42.96 163.121 43.157 163.1 43.3644C163.1 43.5719 163.09 43.7793 163.069 43.9867C163.069 44.1941 163.048 44.3911 163.007 44.5778C162.986 44.7644 162.965 44.9407 162.944 45.1067H143.158C143.178 49.6281 144.029 53.1126 145.709 55.56C147.409 57.9867 149.961 59.2 153.362 59.2C154.524 59.2 155.592 59.0756 156.567 58.8267C157.541 58.557 158.412 58.2356 159.18 57.8622C159.968 57.4889 160.652 57.0948 161.233 56.68C161.835 56.2444 162.343 55.8504 162.758 55.4978H163.069ZM157.593 43.0533C157.593 41.7467 157.479 40.4919 157.251 39.2889C157.044 38.0652 156.691 36.9867 156.193 36.0533C155.695 35.12 155.042 34.3837 154.233 33.8444C153.445 33.2844 152.481 33.0044 151.34 33.0044C150.199 33.0044 149.172 33.243 148.26 33.72C147.368 34.197 146.58 34.8711 145.895 35.7422C145.232 36.6133 144.682 37.6711 144.247 38.9156C143.811 40.16 143.5 41.5393 143.313 43.0533H157.593ZM167.115 52.5733H168.701L169.884 56.2756C170.05 56.7941 170.371 57.2296 170.848 57.5822C171.325 57.9348 171.771 58.2252 172.186 58.4533C172.538 58.64 172.964 58.837 173.461 59.0444C173.98 59.2519 174.53 59.4489 175.11 59.6356C175.691 59.8222 176.282 59.9778 176.884 60.1022C177.506 60.2059 178.097 60.2578 178.657 60.2578C179.424 60.2578 180.171 60.1748 180.897 60.0089C181.623 59.8222 182.266 59.5215 182.826 59.1067C183.386 58.6919 183.832 58.1526 184.164 57.4889C184.516 56.8252 184.693 55.9956 184.693 55C184.693 54.1704 184.537 53.4756 184.226 52.9156C183.935 52.3348 183.531 51.8578 183.012 51.4844C182.494 51.0904 181.893 50.7689 181.208 50.52C180.524 50.2711 179.798 50.043 179.03 49.8356C177.973 49.5452 176.946 49.2652 175.95 48.9956C174.975 48.7259 174.084 48.4563 173.275 48.1867C172.424 47.917 171.647 47.5333 170.941 47.0356C170.257 46.5378 169.655 45.9363 169.137 45.2311C168.639 44.5259 168.245 43.7378 167.955 42.8667C167.685 41.9956 167.55 41.0622 167.55 40.0667C167.55 38.7185 167.841 37.4844 168.421 36.3644C169.023 35.2444 169.832 34.2904 170.848 33.5022C171.864 32.6933 173.036 32.0711 174.364 31.6356C175.712 31.2 177.132 30.9822 178.626 30.9822C179.497 30.9822 180.295 31.0133 181.021 31.0756C181.747 31.1378 182.442 31.2311 183.106 31.3556C183.79 31.4593 184.454 31.5941 185.097 31.76C185.761 31.9052 186.455 32.0711 187.181 32.2578L187.679 40.5956H185.968L184.599 36.8622C184.433 36.4059 184.164 36.0119 183.79 35.68C183.417 35.3274 183.013 35.037 182.577 34.8089C181.872 34.4563 181.073 34.1452 180.181 33.8756C179.31 33.6059 178.398 33.4711 177.444 33.4711C176.78 33.4711 176.127 33.5541 175.484 33.72C174.841 33.8859 174.26 34.1556 173.741 34.5289C173.223 34.9022 172.798 35.4 172.466 36.0222C172.155 36.6237 171.999 37.36 171.999 38.2311C171.999 39.1022 172.124 39.8385 172.373 40.44C172.642 41.0415 172.984 41.5393 173.399 41.9333C173.835 42.3274 174.312 42.6489 174.83 42.8978C175.349 43.1467 175.878 43.3541 176.417 43.52C176.853 43.6652 177.319 43.8104 177.817 43.9556C178.315 44.1007 178.792 44.2459 179.248 44.3911C179.725 44.5156 180.161 44.64 180.555 44.7644C180.97 44.8681 181.312 44.9615 181.581 45.0444C182.639 45.3556 183.624 45.7289 184.537 46.1644C185.45 46.6 186.238 47.1289 186.901 47.7511C187.586 48.3733 188.115 49.1096 188.488 49.96C188.882 50.7896 189.079 51.7644 189.079 52.8844C189.079 54.6267 188.758 56.1304 188.115 57.3956C187.472 58.64 186.601 59.6667 185.501 60.4756C184.423 61.2844 183.147 61.8756 181.675 62.2489C180.223 62.643 178.678 62.84 177.039 62.84C175.981 62.84 174.996 62.7778 174.084 62.6533C173.192 62.5289 172.341 62.363 171.533 62.1556C170.744 61.9481 169.987 61.7304 169.261 61.5022C168.535 61.2533 167.82 61.0148 167.115 60.7867V52.5733ZM217.688 55.4978V57.7378C217.066 58.3393 216.34 58.9407 215.51 59.5422C214.68 60.1437 213.758 60.683 212.741 61.16C211.746 61.637 210.678 62.0207 209.537 62.3111C208.396 62.6222 207.203 62.7778 205.959 62.7778C203.926 62.7778 202.07 62.4356 200.39 61.7511C198.731 61.0667 197.3 60.0607 196.097 58.7333C194.894 57.3852 193.96 55.7363 193.297 53.7867C192.633 51.837 192.301 49.5867 192.301 47.0356C192.301 44.92 192.612 42.8978 193.235 40.9689C193.878 39.0193 194.8 37.3081 196.003 35.8356C197.206 34.363 198.669 33.1911 200.39 32.32C202.132 31.4281 204.092 30.9822 206.27 30.9822C208.116 30.9822 209.755 31.3244 211.186 32.0089C212.617 32.6933 213.82 33.5852 214.795 34.6844C215.769 35.7837 216.506 37.0489 217.003 38.48C217.501 39.8904 217.75 41.3215 217.75 42.7733C217.75 42.96 217.74 43.157 217.719 43.3644C217.719 43.5719 217.709 43.7793 217.688 43.9867C217.688 44.1941 217.667 44.3911 217.626 44.5778C217.605 44.7644 217.584 44.9407 217.563 45.1067H197.777C197.798 49.6281 198.648 53.1126 200.328 55.56C202.029 57.9867 204.58 59.2 207.981 59.2C209.143 59.2 210.211 59.0756 211.186 58.8267C212.16 58.557 213.032 58.2356 213.799 57.8622C214.587 57.4889 215.272 57.0948 215.852 56.68C216.454 56.2444 216.962 55.8504 217.377 55.4978H217.688ZM212.212 43.0533C212.212 41.7467 212.098 40.4919 211.87 39.2889C211.663 38.0652 211.31 36.9867 210.812 36.0533C210.315 35.12 209.661 34.3837 208.852 33.8444C208.064 33.2844 207.1 33.0044 205.959 33.0044C204.818 33.0044 203.792 33.243 202.879 33.72C201.987 34.197 201.199 34.8711 200.515 35.7422C199.851 36.6133 199.301 37.6711 198.866 38.9156C198.43 40.16 198.119 41.5393 197.932 43.0533H212.212ZM220.707 60.6L224.161 59.8222C224.575 59.7185 224.907 59.5111 225.156 59.2C225.426 58.8889 225.561 58.5052 225.561 58.0489V37.6089C225.561 37.0696 225.415 36.603 225.125 36.2089C224.835 35.8148 224.337 35.4933 223.632 35.2444L220.769 34.2178V33.3778L230.445 31.2311V38.0444C230.943 37.2356 231.492 36.4163 232.094 35.5867C232.695 34.7363 233.38 33.9793 234.147 33.3156C234.915 32.6311 235.755 32.0711 236.667 31.6356C237.601 31.2 238.638 30.9822 239.778 30.9822C240.359 30.9822 240.857 31.0133 241.272 31.0756C241.686 31.117 242.06 31.1793 242.392 31.2622C242.723 31.3452 243.035 31.4489 243.325 31.5733C243.615 31.677 243.937 31.7911 244.289 31.9156V39.1956H242.703L241.707 36.5822C241.624 36.3748 241.448 36.1985 241.178 36.0533C240.909 35.8874 240.598 35.763 240.245 35.68C239.913 35.5763 239.55 35.5037 239.156 35.4622C238.783 35.4 238.441 35.3689 238.129 35.3689C237.383 35.3689 236.678 35.4622 236.014 35.6489C235.35 35.8356 234.718 36.1052 234.116 36.4578C233.515 36.8104 232.934 37.2563 232.374 37.7956C231.835 38.3348 231.306 38.957 230.787 39.6622V58.0489C230.787 58.5259 230.912 58.92 231.161 59.2311C231.43 59.5422 231.772 59.7393 232.187 59.8222L236.201 60.6V62H220.707V60.6ZM249.62 35.4311C249.433 34.9748 249.174 34.6533 248.842 34.4667C248.531 34.2593 248.085 34.0726 247.504 33.9067L245.389 33.2533V31.8533H259.295V33.2533L254.815 34.2178L261.909 51.2978L263.495 55.1867L271.46 34.4044L267.073 33.2533V31.8533H277.9V33.2533L275.784 34.0933C275.203 34.3215 274.757 34.5185 274.446 34.6844C274.135 34.8504 273.886 35.1615 273.7 35.6178L265.549 55.7467L262.157 62.3111H260.944L249.62 35.4311ZM303.547 55.4978V57.7378C302.925 58.3393 302.199 58.9407 301.369 59.5422C300.54 60.1437 299.617 60.683 298.601 61.16C297.605 61.637 296.537 62.0207 295.396 62.3111C294.255 62.6222 293.063 62.7778 291.818 62.7778C289.786 62.7778 287.929 62.4356 286.249 61.7511C284.59 61.0667 283.159 60.0607 281.956 58.7333C280.753 57.3852 279.82 55.7363 279.156 53.7867C278.492 51.837 278.161 49.5867 278.161 47.0356C278.161 44.92 278.472 42.8978 279.094 40.9689C279.737 39.0193 280.66 37.3081 281.863 35.8356C283.066 34.363 284.528 33.1911 286.249 32.32C287.992 31.4281 289.952 30.9822 292.129 30.9822C293.975 30.9822 295.614 31.3244 297.045 32.0089C298.476 32.6933 299.679 33.5852 300.654 34.6844C301.629 35.7837 302.365 37.0489 302.863 38.48C303.361 39.8904 303.609 41.3215 303.609 42.7733C303.609 42.96 303.599 43.157 303.578 43.3644C303.578 43.5719 303.568 43.7793 303.547 43.9867C303.547 44.1941 303.527 44.3911 303.485 44.5778C303.464 44.7644 303.444 44.9407 303.423 45.1067H283.636C283.657 49.6281 284.507 53.1126 286.187 55.56C287.888 57.9867 290.439 59.2 293.841 59.2C295.002 59.2 296.07 59.0756 297.045 58.8267C298.02 58.557 298.891 58.2356 299.658 57.8622C300.447 57.4889 301.131 57.0948 301.712 56.68C302.313 56.2444 302.821 55.8504 303.236 55.4978H303.547ZM298.072 43.0533C298.072 41.7467 297.958 40.4919 297.729 39.2889C297.522 38.0652 297.169 36.9867 296.672 36.0533C296.174 35.12 295.521 34.3837 294.712 33.8444C293.924 33.2844 292.959 33.0044 291.818 33.0044C290.678 33.0044 289.651 33.243 288.738 33.72C287.847 34.197 287.058 34.8711 286.374 35.7422C285.71 36.6133 285.161 37.6711 284.725 38.9156C284.289 40.16 283.978 41.5393 283.792 43.0533H298.072ZM306.753 60.5378L310.704 59.6978C311.119 59.5941 311.461 59.3763 311.731 59.0444C312.021 58.7126 312.167 58.3185 312.167 57.8622V23.2667C312.167 22.7896 312.021 22.3852 311.731 22.0533C311.461 21.7215 311.119 21.5037 310.704 21.4L306.753 20.5911V19.1289H323.18V20.5911L319.26 21.4C318.845 21.5037 318.492 21.7319 318.202 22.0844C317.912 22.4163 317.767 22.8104 317.767 23.2667V57.8622C317.767 58.3393 317.901 58.7437 318.171 59.0756C318.461 59.3867 318.824 59.5941 319.26 59.6978L323.18 60.5378V62H306.753V60.5378ZM334.91 60.5378L339.483 59.6978C339.898 59.6148 340.24 59.4074 340.51 59.0756C340.8 58.723 340.945 58.3185 340.945 57.8622V21.4622H331.021C330.606 21.4622 330.305 21.5659 330.118 21.7733C329.932 21.9807 329.787 22.24 329.683 22.5511L327.443 29.4267H325.794V19.1289H361.79V29.4267H360.141L357.901 22.5511C357.797 22.24 357.652 21.9807 357.465 21.7733C357.299 21.5659 357.019 21.4622 356.625 21.4622H346.545V57.8622C346.545 58.3393 346.69 58.7437 346.981 59.0756C347.271 59.4074 347.624 59.6148 348.038 59.6978L352.612 60.5378V62H334.91V60.5378Z" fill="black"/>
<path d="M91 74.96V2.96002H86V71.96V74.96H91Z" fill="black"/>
<path d="M88 18.96L62.22 18.66L66.08 22.96H88V18.96Z" fill="black"/>
<path d="M85.89 29.96H71V33.96H88.87L85.89 29.96Z" fill="black"/>
<path d="M86 47.14L71.5 50.6L70 50.96H86V47.14Z" fill="black"/>
<path d="M86 46.96H72V50.96H86V46.96Z" fill="black"/>
<path d="M86 56.96L67.5 56.96L64.5 61.96H86V56.96Z" fill="black"/>
<path d="M37 76.96C56.33 76.96 72 61.29 72 41.96C72 22.6301 56.33 6.96002 37 6.96002C17.67 6.96002 2 22.6301 2 41.96C2 61.29 17.67 76.96 37 76.96Z" stroke="black" stroke-width="4" stroke-miterlimit="10"/>
<path d="M24 63C24 63 29.0795 66.0621 37.5756 65.999C45.867 65.9375 50 63 50 63" stroke="black"/>
<path d="M50 23C50 23 44.9205 19.9379 36.4244 20.001C28.133 20.0625 24 23 24 23" stroke="black"/>
<path d="M17 54C14.6 50.25 14 46.5 14 44" stroke="black"/>
<path d="M57 55C59.4 51.25 60 47.5 60 45" stroke="black"/>
<path d="M17 30C14.6 33.75 14 37.5 14 40" stroke="black"/>
<path d="M57 30C59.4 33.75 60 37.5 60 40" stroke="black"/>
<circle cx="14" cy="42" r="2.5" stroke="black"/>
<circle cx="60" cy="42" r="2.5" stroke="black"/>
<path d="M56.2525 28.3441C56.9305 25.7164 54.7246 23.2952 52.1173 23.8052C47.8817 24.6333 43.9378 26.6925 40.7633 29.7335C40.5991 29.8903 40.4348 30.0472 40.2775 30.2101C38.2651 32.2456 37.8492 34.6325 38.4243 36.7098C38.7905 38.0312 38.4253 39.4694 37.4075 40.41L16.5972 59.6628C16.43 59.817 16.2937 60.0029 16.1961 60.2095C16.0986 60.4162 16.0417 60.6395 16.029 60.8664C16.0162 61.0933 16.0477 61.3193 16.1218 61.5311C16.1958 61.743 16.3108 61.9365 16.4601 62.1003C16.6097 62.2641 16.7907 62.395 16.9923 62.4853C17.1939 62.5755 17.4122 62.6234 17.6345 62.626C17.8568 62.6287 18.0786 62.5861 18.2871 62.5007C18.4955 62.4153 18.6864 62.2889 18.8486 62.1287L39.0214 42.2093C40.0112 41.2309 41.4433 40.9588 42.7084 41.4296C44.6969 42.1696 47.0577 41.914 49.185 39.9941C49.353 39.8431 49.5196 39.6888 49.6839 39.5319C52.8696 36.501 55.1515 32.6145 56.2525 28.3441Z" fill="black"/>
<path d="M54.9924 29.0088C55.1506 28.4392 55.153 27.8462 54.9995 27.2957C53.9326 30.7148 51.9908 33.8334 49.3819 36.3181C49.2383 36.4552 49.0956 36.5915 48.9471 36.7216C44.9583 40.3265 40.1635 37.3856 39.6154 33.4466C38.0458 38.3717 43.9686 43.4229 48.7411 39.1121C48.8881 38.9805 49.0331 38.845 49.1766 38.7078C51.9605 36.057 53.9808 32.6878 54.9924 29.0088V29.0088Z" fill="#262626"/>
<path d="M28.6554 33.1157L21.3038 22.9448C21.0893 22.5479 21.8699 21.9102 22.1725 22.241L32.086 32.3586C33.377 33.7701 35.9786 35.3623 34.6013 36.6219L33.7063 37.3801C33.5963 37.5726 33.3598 37.7758 33.3258 37.9761C33.2919 38.1765 33.3862 38.2874 33.4336 38.4644C33.481 38.6414 34.0043 39.1544 34.1257 39.2804L56.5182 60.5412C56.8315 60.8837 56.9539 61.3751 56.8585 61.9073C56.7631 62.4394 56.4576 62.9687 56.0094 63.3786C55.5611 63.7886 55.0068 64.0457 54.4682 64.0934C53.9297 64.1411 53.4512 63.9754 53.1379 63.6328L31.8039 40.3602C31.6891 40.2282 31.3799 40.0425 31.2079 39.9797C31.0358 39.9168 30.7736 40.0488 30.5711 40.0649C30.3686 40.081 30.3535 40.1771 30.1521 40.2695C30.1485 40.2712 30.1451 40.2727 30.1419 40.2741C28.767 41.4446 26.7605 41.2207 25.4972 39.8393L15.7103 28.0514C15.4037 27.7161 15.8145 27.2334 16.1907 27.4824L25.6919 35.8262C25.9142 36.0392 26.2398 35.7414 26.0463 35.502L18.1546 25.4593C17.8911 25.0993 18.3412 24.6665 18.6898 24.9456L28.301 33.4399C28.5222 33.6539 28.8478 33.3562 28.6554 33.1157Z" fill="black"/>
<path d="M31.7258 36.2432C31.5953 36.6736 31.6253 37.1509 31.4914 37.5799C31.4498 37.7147 31.3934 37.8436 31.3234 37.9641C31.4096 37.9337 31.4897 37.8898 31.5612 37.834L33.3272 36.433C33.8347 36.0305 33.7764 35.1124 33.1977 34.383L32.8939 34C32.8616 34.182 32.8077 34.3579 32.7332 34.524C32.4545 35.1323 31.9205 35.5978 31.7258 36.2432Z" fill="#262626"/>
</svg>
