<svg xmlns="http://www.w3.org/2000/svg" width="22.5" height="29.251" viewBox="0 0 22.5 29.251">
  <path id="Password-icon" d="M26.438,13.5H24.75V10.216a6.75,6.75,0,1,0-13.5-.091V13.5H9.563A2.821,2.821,0,0,0,6.75,16.313v13.5a2.821,2.821,0,0,0,2.813,2.813H26.438a2.821,2.821,0,0,0,2.813-2.812v-13.5A2.821,2.821,0,0,0,26.438,13.5Zm-7.453,8.775v4.837a1.008,1.008,0,0,1-.935,1.013.986.986,0,0,1-1.034-.984V22.275a2.25,2.25,0,1,1,1.969,0Zm3.8-8.775H13.219V10.125a4.781,4.781,0,0,1,9.563,0Z" transform="translate(-6.75 -3.374)"/>
</svg>
