<svg id="section3-illustration" xmlns="http://www.w3.org/2000/svg" width="659.043" height="413.881" viewBox="0 0 659.043 413.881">
  <path id="Path_404" data-name="Path 404" d="M688.8,457.681c-6.613,15.9-20.448,30.265-35.3,43.868q-19.583,17.94-41.894,34.672-6.183,4.645-12.564,9.173l-2.955,2.084q-3.93,2.781-7.994,5.51l-.325.221q-3.942,2.682-7.954,5.312A218,218,0,0,1,551.593,574.7c-3.483,1.614-7.077,3.118-10.8,4.465q-3.019,1.1-6.166,2.055c-3.437,1.045-6.967,1.957-10.654,2.706-.615.128-1.237.25-1.858.366-3.774.708-7.594,1.225-11.455,1.579A176.133,176.133,0,0,1,467.729,584c-7.083-1.109-14.056-2.537-20.8-4.163-.83-.2-1.655-.4-2.485-.581-22.973-5.748-44.542-13.551-67.678-19.037q-11.96-2.839-24.384-4.819-6.061-.964-12.192-1.742c-9.62-1.2-19.362-2-29.145-2.4-13.191-.581-26.811-.331-39.363,1.974q-2.508.459-4.952,1.033-3.1.726-6.084,1.655a108.32,108.32,0,0,0-15.612,6.427c-.993.488-1.974.981-2.955,1.48h0c-3.077,1.568-6.113,3.17-9.2,4.726a116.064,116.064,0,0,1-17.266,7.327,91.424,91.424,0,0,1-9.916,2.531,146.108,146.108,0,0,1-27.775,2.526c-4.569,0-9.144-.1-13.667-.337h-.139c-1.544-.081-3.094-.174-4.645-.29-7.06-.482-14.1-1.225-21.028-2.241-23.751-3.483-46.278-10.067-64.4-20.111C49.436,544.326,33.807,524,36.152,503.691c1.684-14.63,12.14-28.216,22.062-41.517,18.456-24.767,35.746-50.1,44.844-76.8,7.379-21.673,9.579-44.588,26.561-64.066A89.024,89.024,0,0,1,150.113,304.4a130.869,130.869,0,0,1,18.973-9.591,164,164,0,0,1,22.869-7.46,182,182,0,0,1,20.506-3.855c3.75-.488,7.547-.865,11.368-1.12q4.412-.308,8.865-.389h.459q2.723-.052,5.446,0a253.757,253.757,0,0,1,39.479,3.71c8.163,1.364,16.256,3.036,24.181,4.877q7.095,1.643,14.062,3.443c1.417.366,2.833.737,4.232,1.115,33.046,8.854,62.122,21.081,93.96,31.113.163.052.319.1.482.145h0a196.13,196.13,0,0,0,19.879,4.993q7.394,1.48,15.095,2.589c7.849,1.161,15.867,2.078,23.943,2.868l1.782.174c11.849,1.161,23.8,2.026,35.415,3.036,4.122.36,8.209.732,12.238,1.161q3.832.383,7.594.813c1.8.209,3.605.418,5.411.639s3.716.453,5.573.691c1.208.151,2.409.308,3.617.476,7.315.97,14.613,2.055,21.83,3.3,4.389.755,8.755,1.568,13.069,2.444q4.685.952,9.289,2.009,3.414.772,6.77,1.626c18.178,4.569,35.189,10.561,49.848,18.648C684.416,392.8,701.451,427.27,688.8,457.681Z" transform="translate(-33.888 -172.578)" fill="#6c63ff" opacity="0.1"/>
  <circle id="Ellipse_55" data-name="Ellipse 55" cx="12.558" cy="12.558" r="12.558" transform="translate(132 27.368)" fill="#6c63ff" opacity="0.1"/>
  <circle id="Ellipse_56" data-name="Ellipse 56" cx="12.558" cy="12.558" r="12.558" transform="translate(388.678 0)" fill="#6c63ff" opacity="0.1"/>
  <circle id="Ellipse_57" data-name="Ellipse 57" cx="12.558" cy="12.558" r="12.558" transform="translate(540.875 28.123)" fill="#6c63ff" opacity="0.1"/>
  <circle id="Ellipse_58" data-name="Ellipse 58" cx="21.046" cy="21.046" r="21.046" transform="translate(0 49.262)" fill="#6c63ff" opacity="0.1"/>
  <circle id="Ellipse_59" data-name="Ellipse 59" cx="21.046" cy="21.046" r="21.046" transform="translate(20.175 153.185)" fill="#6c63ff" opacity="0.1"/>
  <circle id="Ellipse_60" data-name="Ellipse 60" cx="21.046" cy="21.046" r="21.046" transform="translate(585.028 114.931)" fill="#6c63ff" opacity="0.1"/>
  <path id="Path_405" data-name="Path 405" d="M368,320.723a22.644,22.644,0,0,1-.308,5.283c-1.161,5.394-6.073,9.1-10.828,11.908s-9.98,5.469-12.807,10.212c-3.408,5.73-2.322,13.435,1.678,18.787s10.34,8.54,16.866,9.87a39.05,39.05,0,0,0,33.859-9.237,36.923,36.923,0,0,0,11.211-33.093c-4.842.679-9.156-3.594-10.723-8.227s-1.242-9.655-1.852-14.514a4.981,4.981,0,0,0-.72-2.322,5.216,5.216,0,0,0-3-1.631c-5.6-1.539-15.014-4.906-20.814-3.617C365.338,305.338,367.916,316.334,368,320.723Z" transform="translate(-162.276 -181.763)" fill="#be6f72"/>
  <path id="Path_406" data-name="Path 406" d="M368,320.723a22.644,22.644,0,0,1-.308,5.283c-1.161,5.394-6.073,9.1-10.828,11.908s-9.98,5.469-12.807,10.212c-3.408,5.73-2.322,13.435,1.678,18.787s10.34,8.54,16.866,9.87a39.05,39.05,0,0,0,33.859-9.237,36.923,36.923,0,0,0,11.211-33.093c-4.842.679-9.156-3.594-10.723-8.227s-1.242-9.655-1.852-14.514a4.981,4.981,0,0,0-.72-2.322,5.216,5.216,0,0,0-3-1.631c-5.6-1.539-15.014-4.906-20.814-3.617C365.338,305.338,367.916,316.334,368,320.723Z" transform="translate(-162.276 -181.763)" opacity="0.1"/>
  <path id="Path_407" data-name="Path 407" d="M355.285,758.427a116.075,116.075,0,0,1-17.266,7.327,91.438,91.438,0,0,1-9.916,2.531,62.412,62.412,0,0,1,.726-13.353,71.1,71.1,0,0,0,1.295-7.623A20,20,0,0,0,327.83,736.6c6.468-.883,12.61-2.322,19.107-1.9l.412.029a7.245,7.245,0,0,1,2.264.424,6.114,6.114,0,0,1,2.456,2.16,14.865,14.865,0,0,1,.923,1.422,22.64,22.64,0,0,1,2.676,10.6A70.465,70.465,0,0,1,355.285,758.427Z" transform="translate(-156.322 -362.44)" fill="#be6f72"/>
  <path id="Path_408" data-name="Path 408" d="M417.412,749.937q-3.1.726-6.084,1.655a108.326,108.326,0,0,0-15.612,6.427,23.044,23.044,0,0,1-.476-4.807,26.846,26.846,0,0,1,20.523-4.221,2.711,2.711,0,0,1,1.3.522,1.742,1.742,0,0,1,.348.424Z" transform="translate(-184.595 -368.244)" fill="#be6f72"/>
  <path id="Path_409" data-name="Path 409" d="M390,650.471a44.582,44.582,0,0,1-2.322,11.176c-1.457,3.832-3.826,7.547-3.524,11.641.134,1.776.737,3.7.824,5.463q-2.508.459-4.952,1.033-3.1.726-6.084,1.655a108.329,108.329,0,0,0-15.612,6.427c-.993.488-1.974.981-2.955,1.48h0c-.406-.052-.807-.116-1.213-.192-2.9-.528-5.957-1.829-7.6-4.151a6.665,6.665,0,0,1-.877-1.742c-.946-2.827.041-6.351-1.927-8.592l-.093.081-.07.047a19.5,19.5,0,0,1-3.53,2.543h0a23.659,23.659,0,0,1-19.159,1.846,20.99,20.99,0,0,1-3.594-1.614c-2.659-1.515-5.225-4.064-5.016-7.106.116-1.7,1.086-3.321.824-5a10.459,10.459,0,0,0-1.573-3.263c-3.884-6.967.749-15.925-1.689-23.5-.058-.18-.122-.36-.186-.534-.18-.493-.383-.969-.581-1.446-.5-1.109-1.057-2.2-1.5-3.338a19.442,19.442,0,0,1-.871-2.944,36.845,36.845,0,0,1-.581-8.836,92.436,92.436,0,0,1,3.379-23.293c.354-1.335.749-3.222,1.272-5.277h0a40.4,40.4,0,0,1,2.055-6.34c1.161-2.671,2.74-4.8,4.9-5.306,3.251-.761,8.221.848,11.519,1.242l13.034,1.556,26.062,3.118c4.5.54,9.225,1.161,12.935,3.692.244.168.482.343.72.528a14.713,14.713,0,0,1,2.613,2.659c.267.343.523.7.766,1.068a24.165,24.165,0,0,1,2.148,4.1c3.234,7.768,3.309,16.436,3.333,24.849A253.9,253.9,0,0,1,390,650.471Z" transform="translate(-147.202 -298.085)" fill="#3f3d56"/>
  <path id="Path_410" data-name="Path 410" d="M360.739,714.375c-.784-3.019-2.438-7.391-2.682-8.581a108.891,108.891,0,0,1-1.777-12.088c-.644-7.234-1.806-17.417.749-24.3,2.4,1.277,4.505,4.894,5.614,7.362,4.018,8.947-.505,19.931,3.269,28.982a4.773,4.773,0,0,1,.517,1.742,4.215,4.215,0,0,1-.8,2.137l-1.271,2.113Z" transform="translate(-167.907 -335.086)" opacity="0.1"/>
  <path id="Path_411" data-name="Path 411" d="M495.6,230.633c4.273-6.967,10.125-13.818,9.76-21.963-.134-2.9-1.086-5.742-1.811-8.587a54.784,54.784,0,0,1-.4-25.133,28.385,28.385,0,0,1,20.529,4.6,11.717,11.717,0,0,1,4.534,5.1,14.753,14.753,0,0,1,.505,6.322c-.319,4.883-.755,10.09-3.762,13.934-.935,1.2-2.084,2.218-3,3.431a22.218,22.218,0,0,0-2.868,5.939l-9.87,26.852c-4.981,13.533-10.381,27.688-21.354,37.052-.267.226-8.128-10.938-8.778-12.059-2.63-4.592-1.48-6.531,1.7-10.375C487.065,248.143,490.473,238.976,495.6,230.633Z" transform="translate(-219.152 -127.546)" fill="#be6f72"/>
  <path id="Path_412" data-name="Path 412" d="M286.443,665.33a44.593,44.593,0,0,1-.505,5.986c-.1.732-.226,1.457-.372,2.183-1.98,10.334-6.909,20.163-10.357,30.231-4.546,13.289-6.543,24.82-8.128,38.016-4.569,0-9.144-.1-13.667-.337h-.139c-1.544-.081-3.094-.174-4.645-.29,1.4-12.308-1.161-25.22,1.341-37.54,1.01-4.958,2.735-9.771,3.774-14.706a41.63,41.63,0,0,0,.726-4.4,11.8,11.8,0,0,1,.853-4.128,3.037,3.037,0,0,1,.2-.354,9.943,9.943,0,0,1,2.044-2.322,50.991,50.991,0,0,1,25-11.919C283.883,665.568,285.166,665.417,286.443,665.33Z" transform="translate(-123.104 -333.375)" fill="#fbbebe"/>
  <path id="Path_413" data-name="Path 413" d="M286.443,665.33a44.593,44.593,0,0,1-.505,5.986c-.1.732-.226,1.457-.372,2.183-1.98,10.334-6.909,20.163-10.357,30.231-4.546,13.289-6.543,24.82-8.128,38.016-4.569,0-9.144-.1-13.667-.337h-.139c-1.544-.081-3.094-.174-4.645-.29,1.4-12.308-1.161-25.22,1.341-37.54,1.01-4.958,2.735-9.771,3.774-14.706a41.63,41.63,0,0,0,.726-4.4,11.8,11.8,0,0,1,.853-4.128,3.037,3.037,0,0,1,.2-.354,9.943,9.943,0,0,1,2.044-2.322,50.991,50.991,0,0,1,25-11.919C283.883,665.568,285.166,665.417,286.443,665.33Z" transform="translate(-123.104 -333.375)" opacity="0.1"/>
  <path id="Path_414" data-name="Path 414" d="M234.136,696.241a90.99,90.99,0,0,1-.8,9.643c-1.55,13.069-1.84,26.706-2.9,39.973-1.544-.081-3.094-.174-4.645-.29-7.06-.482-14.1-1.225-21.028-2.241q.8-4.482,1.614-8.964a48.538,48.538,0,0,0,1.132-11.077,64.832,64.832,0,0,0-1.869-10.375c-1.6-7.373-2.491-15.327-5.121-22.283a29.03,29.03,0,0,0-6.421-10.45c10.88-4.273,21.336-4.517,33.023-4.064a4.186,4.186,0,0,1,2.369.581,4.006,4.006,0,0,1,1.19,1.8,45.036,45.036,0,0,1,3.269,13.249A43.458,43.458,0,0,1,234.136,696.241Z" transform="translate(-100.233 -337.829)" fill="#fbbebe"/>
  <circle id="Ellipse_61" data-name="Ellipse 61" cx="22.642" cy="22.642" r="22.642" transform="translate(198.899 90.68)" fill="#be6f72"/>
  <path id="Path_415" data-name="Path 415" d="M376.926,370.666c2.9-4.952,5.446-11.135,11.031-12.511,3.152-.784,6.433.284,9.5,1.335a4.645,4.645,0,0,1,2.322,1.347,4.563,4.563,0,0,1,.7,2.4,157.367,157.367,0,0,1-.1,30.77c-.737,7.24-1.98,14.445-2.2,21.719-.308,10.085,1.353,20.169.807,30.242-.412,7.635-2.084,15.136-3.745,22.6L388.282,499.8a5.324,5.324,0,0,1-1.121,2.642,5.224,5.224,0,0,1-2.055,1.161,76.5,76.5,0,0,1-61.907-4.848,18.782,18.782,0,0,1-6.659-5.336c-2.322-3.344-2.537-7.768-1.782-11.774s2.386-7.786,3.483-11.716c1.7-6.1,2.1-12.459,2.479-18.776.511-8.314,1.022-16.68.134-24.965-.61-5.707-1.881-11.327-2.839-16.988a187.372,187.372,0,0,1-2.45-25.795c-.145-5.161.093-10.892,3.663-14.613a16.831,16.831,0,0,1,6.427-3.785c3.965-1.463,8.4-2.322,12.4-.987s7.234,5.539,6.288,9.655c-.435,1.91-1.672,3.582-1.974,5.521a7.958,7.958,0,0,0,2.9,6.886C355.735,395.538,371.707,379.63,376.926,370.666Z" transform="translate(-150.676 -204.424)" fill="#e3e8f4"/>
  <path id="Path_416" data-name="Path 416" d="M410.689,324.636a17.121,17.121,0,0,1,9.922-.581c2.1.5,4.36,1.382,6.293.447.7-.337,1.283-.888,1.991-1.2,1.916-.842,4.4.192,6.1-1.033,1.068-.772,1.417-2.177,1.777-3.454A30.974,30.974,0,0,1,447,303.3c-.61,4.453-1.051,9.521,1.893,12.924a12.9,12.9,0,0,0,5.126,3.269,15.332,15.332,0,0,0,8.622,1.213c2.885-.592,5.585-2.775,6.044-5.684-.1,4.372-4.261,7.426-5.428,11.646-.441,1.579-.4,3.257-.708,4.871-.784,4.122-3.727,7.431-6.3,10.752A76.5,76.5,0,0,0,441.042,379a17.706,17.706,0,0,1-.987,4.645,29.2,29.2,0,0,1-1.928,3.321c-4.256,7.188-2.944,16.256-1.5,24.465,2.258,12.86,4.511,25.458,8.169,37.993.627,2.142,1.335,4.378,2.932,5.939-.505,5.068-5.62,7.379-10.218,9.568a50.125,50.125,0,0,0-12.424,8.412,9.791,9.791,0,0,0-3.112,4.325c-.453,1.631-.128,3.425-.708,5.01s-2.9,2.723-3.925,1.388c-1.277-4.778.906-9.777.807-14.723-.07-3.338-1.161-6.584-1.318-9.922-.151-3.78.964-7.489,2.148-11.077,3.3-9.992,7.28-19.891,8.424-30.347s-.993-21.876-8.413-29.336c-8.807-8.894-13.7-20.953-23.136-29.122-1.5-1.295-3.193-2.9-2.944-4.865a5.417,5.417,0,0,1,1.109-2.357c3.24-4.575,7.547-8.308,11.031-12.686S411.322,330.21,410.689,324.636Z" transform="translate(-183.609 -181.53)" fill="#3f3d56"/>
  <path id="Path_417" data-name="Path 417" d="M342.34,355.258a16.976,16.976,0,0,1-1.655,1.881,5.458,5.458,0,0,1-2.607.807,84.283,84.283,0,0,1-10.317.923c-2.9,0-5.916-.255-8.709.54-3.9,1.1-7.008,4.18-8.958,7.722a38.3,38.3,0,0,0-3.623,11.536,154.285,154.285,0,0,0-2.642,26.643,70.07,70.07,0,0,0,12.686-13.167c2.787-3.78,5.312-7.96,9.289-10.485,1.829-1.161,3.884-1.928,5.724-3.06,3.838-2.363,6.5-6.183,9.051-9.87,1.881-2.734,7.321-8.076,7.751-11.35C348.7,354.248,344.372,352.721,342.34,355.258Z" transform="translate(-146.256 -202.788)" fill="#3f3d56"/>
  <path id="Path_418" data-name="Path 418" d="M385.907,248.029a18.36,18.36,0,0,1,2.055,1.434c3.942,2.752,9.22,2.241,13.986,1.614a10.5,10.5,0,0,0,4.221-1.161,6.6,6.6,0,0,0,2.764-6.16,12.263,12.263,0,0,0-2.839-6.386,22.973,22.973,0,0,0-15.879-8.662,10.218,10.218,0,0,0-4.755.505c-1.875.772-3.286,2.363-5.016,3.425-5.1,3.135-12.964,1.742-16.256,6.746-2.409,3.692-.691,8.709-1.829,12.953-.848,3.17-3.292,6.055-2.822,9.289.261,1.742,1.353,3.263,2.224,4.819a21.3,21.3,0,0,1,2.665,11.745c2.235,1.579,5.353-.877,5.974-3.536s-.093-5.492.435-8.174c.935-4.708,5.092-8.163,6.967-12.482C379.149,250.9,381.343,245.678,385.907,248.029Z" transform="translate(-169.596 -150.208)" fill="#3f3d56"/>
  <path id="Path_419" data-name="Path 419" d="M292.409,337.512a4.376,4.376,0,0,0,.3,3.118c1.161,1.742,3.82,1.115,5.91,1.376,3.257.4,5.661,3.483,6.293,6.723s-.122,6.537-.946,9.719q-2.8,10.816-6.665,21.325c-6.932-.819-14.23-3.483-17.911-9.4-3.344-5.382-3-12.238-5.126-18.207-1.492-4.2-4.169-7.861-6.816-11.449,4.256.534,7.3-4.331,7.547-8.616s-1.1-8.633-.18-12.819c.215-.993,16.988,2.136,18.619,3.269C298.151,325.819,293.152,332.971,292.409,337.512Z" transform="translate(-130.997 -188.153)" fill="#fbbebe"/>
  <path id="Path_420" data-name="Path 420" d="M292.409,337.512a4.376,4.376,0,0,0,.3,3.118c1.161,1.742,3.82,1.115,5.91,1.376,3.257.4,5.661,3.483,6.293,6.723s-.122,6.537-.946,9.719q-2.8,10.816-6.665,21.325c-6.932-.819-14.23-3.483-17.911-9.4-3.344-5.382-3-12.238-5.126-18.207-1.492-4.2-4.169-7.861-6.816-11.449,4.256.534,7.3-4.331,7.547-8.616s-1.1-8.633-.18-12.819c.215-.993,16.988,2.136,18.619,3.269C298.151,325.819,293.152,332.971,292.409,337.512Z" transform="translate(-130.997 -188.153)" opacity="0.1"/>
  <circle id="Ellipse_62" data-name="Ellipse 62" cx="22.642" cy="22.642" r="22.642" transform="translate(135.036 97.066)" fill="#fbbebe"/>
  <path id="Path_421" data-name="Path 421" d="M251.723,303.336c.824-1.289-.581-3.089.064-4.476.383-.836,1.353-1.2,2.1-1.742a7.832,7.832,0,0,0,2.189-2.839,33,33,0,0,0,3.019-22.033c-.534-2.508-1.01-5.841,1.283-6.967a4.163,4.163,0,0,1,2.026-.348c4.134.134,8.128,2.9,12.14,1.922a6.967,6.967,0,0,0,5.109-6.079c.261-3.751-2.549-6.967-5.312-9.492-4.976-4.575-12.558-5.591-19.316-5.7l-12.569-.209c-4.023-.07-8.534.058-11.333,2.944-4.029,4.151-2,10.944-2.584,16.7a17.417,17.417,0,0,1-6.386,11.7c-2.607,2.078-6.195,4.064-6.148,7.385a12.009,12.009,0,0,0,.819,3.315c1.283,4.343.058,9.144-2.4,12.947s-6.061,6.729-9.794,9.289a27.3,27.3,0,0,0-5.643,4.529,13.353,13.353,0,0,0-2.944,7.507,9.87,9.87,0,0,0,1.231,6.055c2.456,3.925,8.349,4.5,12.384,2.224s6.5-6.584,8.128-10.915c.975-2.572,1.968-5.515,4.465-6.671,3.158-1.469,6.851.853,8.906,3.669s3.321,6.253,5.951,8.54a10.629,10.629,0,0,0,14.619-1.208c2.491-3.025,3.042-7.211,2.9-11.13A16.215,16.215,0,0,0,251.723,303.336Z" transform="translate(-101.018 -157.228)" fill="#3f3d56"/>
  <path id="Path_422" data-name="Path 422" d="M236.189,372.274c-2.584.552-5.283-.668-7.2-2.491a28.614,28.614,0,0,1-4.563-6.45,113.562,113.562,0,0,0-11.7-16.221c-3.809-4.395-9.109-8.86-14.764-7.5a14.01,14.01,0,0,0-5.156,2.758,37.586,37.586,0,0,0-14.032,33.546c.441,3.7,1.446,7.315,1.864,11.031a70.707,70.707,0,0,1,.244,9.214c-.157,9.359-.476,19.258-5.521,27.142-7.82,12.192-12.006,26.753-17.748,40.06-3.1,7.193-4.958,14.851-6.781,22.468q-1.62,6.781-3.234,13.556l-7.025,29.551c-.726,3.048-1.451,6.241-.685,9.289,1.161,4.552,5.44,7.733,9.951,9.028s9.289,1.074,13.974,1.115c8.964.087,18,1.2,26.41,4.314,2.4.888,4.8,1.951,7.362,2.16a17.127,17.127,0,0,0,7.507-1.388c6.543-2.531,12.151-6.967,18.178-10.549a71.83,71.83,0,0,1,11.844-5.73c2.067-.772,4.285-1.5,5.707-3.193a10.314,10.314,0,0,0,1.91-4.558c1.962-9.15.644-18.631,0-27.966s-6.224-19.2-1.608-27.339a21.9,21.9,0,0,0,2.514-5.045c.627-2.38.1-4.941.627-7.344a37.988,37.988,0,0,1,1.962-5.074,26.752,26.752,0,0,0,1.254-9.458,103.778,103.778,0,0,0-2.206-20.9c-1.829-8.709,4.221-17.319,7.687-25.545,1.242-2.944,3-5.724,3.518-8.877.464-2.845-.134-5.742-.581-8.593a75.186,75.186,0,0,1-.813-13.353c.11-4.006.534-8.087-.424-11.983s-3.692-7.675-7.623-8.476a3.112,3.112,0,0,0-2.624.412,3.4,3.4,0,0,0-.923,1.626c-1.277,3.913-1.028,8.128-1.742,12.192S240.2,371.415,236.189,372.274Z" transform="translate(-77.356 -196.656)" fill="#f86d70"/>
  <path id="Path_423" data-name="Path 423" d="M203.382,436.336c.238-1.608-.511-3.745-2.137-3.687-1.5.058-2.166,1.933-2.16,3.437s.209,3.228-.853,4.285c-.941.935-2.5.906-3.588,1.666a2.949,2.949,0,0,0-1.237,2.421c0,.807.366,1.579.389,2.386s-.517,1.742-1.318,1.689a3.64,3.64,0,0,0,.528,4.412c.418.406.964.755,1.1,1.324a3.193,3.193,0,0,1-.093,1.19,3.117,3.117,0,0,0,2.467,3.559,1.956,1.956,0,0,0,.1,2.9,4.541,4.541,0,0,0,3.118.894,18.95,18.95,0,0,0,7.321-1.515,4.365,4.365,0,0,0,2.02-1.393,1.742,1.742,0,0,0-.168-2.253c1.126.186,2.479.29,3.216-.581,1.028-1.219-.075-3.025-1.161-4.2a2.322,2.322,0,0,0,1.08-4.134c-.372-.273-.877-.511-.929-.97s.337-.755.5-1.161c.372-.912-.476-1.84-1.295-2.392-1.939-1.289-4.8-1.266-6.52-2.566S203.133,438.078,203.382,436.336Z" transform="translate(-99.338 -235.782)" fill="#be6f72"/>
  <path id="Path_424" data-name="Path 424" d="M409.46,287.258a27.486,27.486,0,0,1-4.232.1.923.923,0,0,0-1.016.8l-2.7,20.25a8.22,8.22,0,0,1-1.742,4.012A8.743,8.743,0,0,0,397.8,319.1v34.4s-.174,4.587,3.35,4.587a50.946,50.946,0,0,0,12.7,0s2.822-.534,2.822-4.767V319.451a8.285,8.285,0,0,0-1.742-6.735,8.429,8.429,0,0,1-1.689-3.989l-2.8-20.674a.923.923,0,0,0-.981-.8Z" transform="translate(-185.642 -174.801)" fill="#3f3d56"/>
  <path id="Path_425" data-name="Path 425" d="M409.46,287.258a27.486,27.486,0,0,1-4.232.1.923.923,0,0,0-1.016.8l-2.7,20.25a8.22,8.22,0,0,1-1.742,4.012A8.743,8.743,0,0,0,397.8,319.1v34.4s-.174,4.587,3.35,4.587a50.946,50.946,0,0,0,12.7,0s2.822-.534,2.822-4.767V319.451a8.285,8.285,0,0,0-1.742-6.735,8.429,8.429,0,0,1-1.689-3.989l-2.8-20.674a.923.923,0,0,0-.981-.8Z" transform="translate(-185.642 -174.801)" opacity="0.1"/>
  <rect id="Rectangle_12" data-name="Rectangle 12" width="17.11" height="28.93" rx="8.555" transform="translate(213.141 144.917)" fill="#6c63ff"/>
  <path id="Path_426" data-name="Path 426" d="M513.727,136.463a26.753,26.753,0,0,1-3.867,1.742.929.929,0,0,0-.633,1.126l5.307,19.74a8.2,8.2,0,0,1-.046,4.366,8.709,8.709,0,0,0,.755,6.926l13.249,31.746s1.6,4.3,4.859,2.938a50.587,50.587,0,0,0,11.728-4.912s2.4-1.579.772-5.481L532.8,163.4a8.308,8.308,0,0,0-4.2-5.55,8.447,8.447,0,0,1-3.095-3.025l-10.549-18A.929.929,0,0,0,513.727,136.463Z" transform="translate(-232.392 -111.51)" fill="#3f3d56"/>
  <rect id="Rectangle_13" data-name="Rectangle 13" width="17.11" height="28.93" rx="8.555" transform="translate(283.991 59.027) rotate(-22.65)" fill="#6c63ff"/>
  <path id="Path_427" data-name="Path 427" d="M230.84,344.048c-6.241,2.572-8.709,10.572-7.246,17.156s5.87,12.07,10.166,17.29L245.8,393.182c3.327,4.064,6.967,8.343,12.041,9.759,7.42,2.073,14.84-2.653,21.255-6.926a320.193,320.193,0,0,1,61.053-31.792,20.537,20.537,0,0,0,5.968-3.089,11,11,0,0,0,2.589-12.773,12.787,12.787,0,0,0-11.3-7,15.273,15.273,0,0,0-12.029,6.177c-1.341,1.782-2.322,3.82-3.617,5.632-3.274,4.552-8.384,7.367-13.382,9.91a341.769,341.769,0,0,1-37.157,16.256c-2.322.848-4.941,1.655-7.129.534a8.66,8.66,0,0,1-3.06-3.274,81.316,81.316,0,0,1-8.767-18.683c-1.585-4.935-2.868-10.311-6.677-13.818-5.4-4.97-15.176-3.78-19.223,2.322,0,0-4.743,6.938-1.84,9.841S230.84,344.048,230.84,344.048Z" transform="translate(-112.431 -197.342)" fill="#fbbebe"/>
  <path id="Path_428" data-name="Path 428" d="M789.907,298.715a17.715,17.715,0,0,1,.749,7.141c-.151,2.938-.888,6.386-3.617,7.507-1.777.714-3.971.174-5.55,1.254-1.916,1.3-1.823,4.1-1.527,6.386.819,6.288,1.742,12.807,5.167,18.126a38.5,38.5,0,0,0,6.857,7.5c5.034,4.54,10.555,8.976,17.168,10.491a7.183,7.183,0,0,0,3.309.139,6.851,6.851,0,0,0,2.862-1.742c3.832-3.518,5.806-8.54,8.36-13.092,1.806-3.257,3.96-6.386,4.976-9.974a17.417,17.417,0,0,0-5.33-17.574c-1.132-.97-2.386-1.782-3.484-2.787a17.868,17.868,0,0,1-5.225-10.143,44.38,44.38,0,0,1-.25-11.611,63.18,63.18,0,0,0-17.237,1.388c-2.52.505-6.067.737-8.349,1.939C786.221,295.023,789.2,296.77,789.907,298.715Z" transform="translate(-345.889 -176.034)" fill="#fbbebe"/>
  <path id="Path_429" data-name="Path 429" d="M789.907,298.715a17.715,17.715,0,0,1,.749,7.141c-.151,2.938-.888,6.386-3.617,7.507-1.777.714-3.971.174-5.55,1.254-1.916,1.3-1.823,4.1-1.527,6.386.819,6.288,1.742,12.807,5.167,18.126a38.5,38.5,0,0,0,6.857,7.5c5.034,4.54,10.555,8.976,17.168,10.491a7.183,7.183,0,0,0,3.309.139,6.851,6.851,0,0,0,2.862-1.742c3.832-3.518,5.806-8.54,8.36-13.092,1.806-3.257,3.96-6.386,4.976-9.974a17.417,17.417,0,0,0-5.33-17.574c-1.132-.97-2.386-1.782-3.484-2.787a17.868,17.868,0,0,1-5.225-10.143,44.38,44.38,0,0,1-.25-11.611,63.18,63.18,0,0,0-17.237,1.388c-2.52.505-6.067.737-8.349,1.939C786.221,295.023,789.2,296.77,789.907,298.715Z" transform="translate(-345.889 -176.034)" opacity="0.1"/>
  <path id="Path_430" data-name="Path 430" d="M668.149,253.877c-9.429-3.234-13.934-15.867-23.8-17.284-1.556-.226-3.152-.139-4.679-.5-5.684-1.347-8.128-7.919-9.771-13.522-5.539-18.677-12.773-36.954-23.049-53.512-4.337-6.967-11.194-12.691-14.323-20.32-.72-1.742-1.086-3.727-2.38-5.1s-4.064-1.573-4.767.18a4.064,4.064,0,0,0-.128,1.922l.679,7.228L574.119,151.9a6.9,6.9,0,0,0-3.269.232,5.545,5.545,0,0,0-2.572,2.676c-3.994,7.507.261,17.342,7.309,22.091,8.233,5.544,19.989,6.386,25.458,14.66,3.251,4.923,3.315,11.257,5.457,16.755,1.022,2.63,2.514,5.045,3.7,7.594,2.27,4.859,3.431,10.143,5.19,15.205,2.52,7.24,6.253,13.986,9.974,20.692,2.868,5.179,5.806,10.45,10.218,14.41a50.255,50.255,0,0,0,9.731,6.386c8.4,4.587,18.294,9,27.188,5.481C673.02,270.156,671.028,261.314,668.149,253.877Z" transform="translate(-256.527 -114.109)" fill="#fbbebe"/>
  <path id="Path_431" data-name="Path 431" d="M769.283,746.356c-.714,7.576-5.312,14.439-6.386,21.731-7.083-1.109-14.056-2.537-20.8-4.163-.83-.2-1.655-.4-2.485-.581,3.82-10.45.493-22.155,1.5-33.284.1-1.068.238-2.137.424-3.193,8.749-2.984,16.651-6.967,25.824-5.806.18,1.858.366,3.721.546,5.579q.552,5.568,1.091,11.124A45.1,45.1,0,0,1,769.283,746.356Z" transform="translate(-329.033 -356.663)" fill="#fbbebe"/>
  <path id="Path_432" data-name="Path 432" d="M872.784,765.163c-3.437,1.045-6.967,1.957-10.654,2.706-.615.128-1.237.25-1.858.366-3.774.708-7.594,1.225-11.455,1.579-.395-8.07-5.806-15.49-6.6-23.775a34.927,34.927,0,0,1,.064-6.183c.07-.813.151-1.626.226-2.438l1.637-16.7a25.758,25.758,0,0,1,3.93-.192c7.547.18,14.416,3.449,21.894,6a52.2,52.2,0,0,1,.581,10.659c-.285,9.069-1.742,18.247,1.626,26.567C872.372,764.217,872.581,764.687,872.784,765.163Z" transform="translate(-372.027 -356.52)" fill="#fbbebe"/>
  <path id="Path_433" data-name="Path 433" d="M720.918,577.746c1.016,7.919-3.031,15.5-4.784,23.287a82.4,82.4,0,0,0-1.475,15.734l-.917,31.647c-.093,3.164-.174,6.386.79,9.423,1.939,6.084,7.913,10.195,14.131,11.658s12.72.72,19.055-.116c3.106-.412,6.346-.894,8.918-2.688,3.536-2.467,5.08-6.862,6.415-10.961l3.768-11.571c4.337,9.765,2.5,20.442,5.1,30.805a5.968,5.968,0,0,0,1.161,2.63c1.1,1.219,2.9,1.411,4.546,1.527,11.379.8,22.915,1.6,34.109-.581,3.077-.581,6.288-1.521,8.413-3.832,2.473-2.688,2.9-6.642,2.874-10.294-.157-12.546-4.691-24.651-5.7-37.157-.435-5.359-.221-10.746-.412-16.123a107.945,107.945,0,0,0-1.132-12.076,16.222,16.222,0,0,0-1.486-5.283c-1.742-3.251-5.359-5.016-8.784-6.386C778.894,576.579,749.621,576.684,720.918,577.746Z" transform="translate(-318.161 -296.446)" fill="#f86d70"/>
  <circle id="Ellipse_63" data-name="Ellipse 63" cx="24.965" cy="24.965" r="24.965" transform="translate(427.065 75.585)" fill="#fbbebe"/>
  <path id="Path_434" data-name="Path 434" d="M792.077,332.682c-1.852,4.064-4.767,8.128-9.1,9.161-3.989.958-8.215-.964-11.153-3.826s-4.859-6.578-6.9-10.137c-1.486-2.6-3.141-5.225-5.655-6.862-3.437-2.229-7.873-2.171-11.925-1.515s-8.076,1.829-12.192,1.562c-5.127-.342-10.352-2.9-15.188-1.2,1.568,7.013,1,14.723.824,21.911a9.868,9.868,0,0,1-.464,3.274,10.579,10.579,0,0,1-1.69,2.717l-4.645,5.986c4.981,3.727,9.289,8.592,11.031,14.567.981,3.4.679,7.013.645,10.555-.11,10.4,2.148,20.756,1.434,31.13-.836,12.151-5.69,23.635-8.192,35.554a93.084,93.084,0,0,0-1.2,31.119c26.021,9,52.832,13.615,80.34,15.124,4.859.267,10.108.308,14.1-2.485,3.315-2.322,5.173-6.3,5.806-10.305s.2-8.082-.244-12.111q-1.794-16.343-3.582-32.686c-.679-6.2-1.359-12.436-.917-18.654a103.857,103.857,0,0,1,2.229-13.748l5.806-27.9a57.418,57.418,0,0,1,3.309-11.658c1.347-3.019,3.211-5.806,4.7-8.743a38.616,38.616,0,0,0,3.623-11.188,7.414,7.414,0,0,0-.047-3.425c-.621-1.9-2.52-3.048-4.29-3.983a124.643,124.643,0,0,0-34.347-12.047C793.378,326.29,793.535,329.495,792.077,332.682Z" transform="translate(-318.287 -188.16)" fill="#e3e8f4"/>
  <path id="Path_435" data-name="Path 435" d="M818.248,268.489c2.9-5.562,8.331-9.463,11.484-14.9a22.021,22.021,0,0,0,.708-20.32c-1.109-2.264-2.612-4.343-3.483-6.711-.97-2.694-1.062-5.661-2.183-8.3-1.538-3.611-4.871-6.212-8.5-7.71a45.536,45.536,0,0,0-11.455-2.56l-13.191-1.777a14.513,14.513,0,0,0-5.748,0,4.873,4.873,0,0,0-3.739,3.954c-.18,2.282,1.823,4.407,1.359,6.648-.168.79-.633,1.591-.366,2.357a2.392,2.392,0,0,0,1.161,1.161c3.129,1.742,6.868,1.9,10.259,3.036s6.793,3.994,6.45,7.547c-.186,1.91-1.417,3.9-.581,5.608.8,1.585,2.9,1.875,4.581,2.369a12.277,12.277,0,0,1,8.447,13.063c-.244,1.742-.871,3.408-1,5.156-.424,6.119.54,7.867,5.539,11.426Z" transform="translate(-346.867 -140.687)" fill="#3f3d56"/>
  <path id="Path_436" data-name="Path 436" d="M889.688,346.062a8.47,8.47,0,0,1-.621,3.385c-1.811,3.861-7.356,3.617-11.031,5.806-4.575,2.729-5.585,8.819-6,14.125-.476,6.009-.8,12.105.43,18s4.192,11.641,9.138,15.095c6.021,4.186,14.207,4.331,21.081,1.782s12.616-7.478,17.6-12.866c4.726-5.109,8.958-10.8,11.5-17.289a5.507,5.507,0,0,0,.482-3.553c-.54-1.742-2.438-2.531-3.983-3.483a17.574,17.574,0,0,1-7.257-9.986,43.362,43.362,0,0,1-1.5-12.488c-.046-4.372-.058-9.15-2.845-12.523s-7.617-4.32-12.018-4.285c-3.6,0-13.562.343-16.018,3.483C886.622,333.875,889.833,342.323,889.688,346.062Z" transform="translate(-384.396 -191.797)" fill="#be6f72"/>
  <path id="Path_437" data-name="Path 437" d="M889.688,346.062a8.47,8.47,0,0,1-.621,3.385c-1.811,3.861-7.356,3.617-11.031,5.806-4.575,2.729-5.585,8.819-6,14.125-.476,6.009-.8,12.105.43,18s4.192,11.641,9.138,15.095c6.021,4.186,14.207,4.331,21.081,1.782s12.616-7.478,17.6-12.866c4.726-5.109,8.958-10.8,11.5-17.289a5.507,5.507,0,0,0,.482-3.553c-.54-1.742-2.438-2.531-3.983-3.483a17.574,17.574,0,0,1-7.257-9.986,43.362,43.362,0,0,1-1.5-12.488c-.046-4.372-.058-9.15-2.845-12.523s-7.617-4.32-12.018-4.285c-3.6,0-13.562.343-16.018,3.483C886.622,333.875,889.833,342.323,889.688,346.062Z" transform="translate(-384.396 -191.797)" opacity="0.1"/>
  <path id="Path_438" data-name="Path 438" d="M847.1,596.927A4.964,4.964,0,0,0,848.3,599.3a4.8,4.8,0,0,0,1.956.923c19.054,5.591,39.409,3.362,59.137,1.08-2.7-8.221-5.417-16.535-6.166-25.156-.621-7.112.075-14.514-2.444-21.185-.743-1.974-44.054,7.112-48.327,7.849-2.189.377-4.708.25-6.259,1.986-1.869,2.1-2.026,7.106-2.224,9.725C843.42,582.082,844.982,589.7,847.1,596.927Z" transform="translate(-372.76 -286.964)" fill="#be6f72"/>
  <path id="Path_439" data-name="Path 439" d="M894.052,745.808c-3.484,1.614-7.077,3.118-10.8,4.465q-3.019,1.1-6.166,2.055c-3.437,1.045-6.967,1.957-10.654,2.705q-3.153-7.995-6.311-15.995c-1.55-3.925-3.1-7.867-4.4-11.879a74.4,74.4,0,0,1-2.218-8.354,59.6,59.6,0,0,1,1.44-28.9c8.047,1.515,15.914,2.5,23.838,3.652,4.232.581,8.476,1.266,12.773,2.073q.505,4.2.917,8.4.627,6.479,1.028,12.958Q894.395,731.386,894.052,745.808Z" transform="translate(-376.33 -343.684)" fill="#be6f72"/>
  <path id="Path_440" data-name="Path 440" d="M894.052,745.808c-3.484,1.614-7.077,3.118-10.8,4.465q-3.019,1.1-6.166,2.055c-3.437,1.045-6.967,1.957-10.654,2.705q-3.153-7.995-6.311-15.995c-1.55-3.925-3.1-7.867-4.4-11.879a74.4,74.4,0,0,1-2.218-8.354,59.6,59.6,0,0,1,1.44-28.9c8.047,1.515,15.914,2.5,23.838,3.652,4.232.581,8.476,1.266,12.773,2.073q.505,4.2.917,8.4.627,6.479,1.028,12.958Q894.395,731.386,894.052,745.808Z" transform="translate(-376.33 -343.684)" opacity="0.1"/>
  <path id="Path_441" data-name="Path 441" d="M957.859,730.432c.046,3.344-.906,6.758-1.788,10.038-.064.232-.122.459-.18.691a9.569,9.569,0,0,1-5.127-3.843,10.978,10.978,0,0,1-1.376-3.222q-3.942,2.682-7.954,5.312a218.008,218.008,0,0,1-28.222,16.181c-3.483,1.614-7.077,3.118-10.8,4.465q-1.161-4.064-2.206-8.18a75.769,75.769,0,0,1-1.788-8.587,43.612,43.612,0,0,1,1.927-19.536h0l.261-.755a42.7,42.7,0,0,1,3.8-8.006c1.446-2.322,4.308-1.933,7.228-1.161,1.324.343,2.665.755,3.884,1.01,7.588,1.591,15.466-.052,23.223.383a27.757,27.757,0,0,1,10.654,2.711c3.733,1.875,6.741,4.743,7.919,8.709a13,13,0,0,1,.383,1.742A15.406,15.406,0,0,1,957.859,730.432Z" transform="translate(-395.491 -353.465)" fill="#be6f72"/>
  <path id="Path_442" data-name="Path 442" d="M702.146,245.617c-11.989-11.612-25.615-21.452-39.555-30.654a108.629,108.629,0,0,1-10.45-7.449c-3.483-2.9-6.52-6.311-10.218-8.923s-8.273-4.407-12.715-3.547-8.389,5.109-7.739,9.556c.581,3.913,4.1,6.6,7.35,8.842,6.154,4.256,12.337,8.523,19.031,11.861a59.647,59.647,0,0,1,6.752,3.6c4.169,2.81,7.2,6.967,10.358,10.874a151.2,151.2,0,0,0,42.963,36.576c.2.116,7.066-14.706,6.775-16.628C714.059,255.307,705.3,248.682,702.146,245.617Z" transform="translate(-279.452 -136.033)" fill="#be6f72"/>
  <path id="Path_443" data-name="Path 443" d="M897.749,605.444c-9.254.581-18.131,3.7-27.182,5.7s-18.886,2.764-27.287-1.161l5.109,34.887a16.187,16.187,0,0,1,.157,5.835c-.389,1.823-1.4,3.542-1.312,5.405.134,2.949,2.9,5.022,5.51,6.386a49.262,49.262,0,0,0,24.616,5.672c-.633,2.555-1.422,5.08-2.061,7.635,4.267,4.581,11.246,4.888,17.336,6.34,4.645,1.1,9,3,13.551,4.343a57.843,57.843,0,0,0,16.959,2.363c3.872-.041,7.977-.581,10.984-3,3.7-2.978,4.848-8.041,5.649-12.72a28.936,28.936,0,0,0,.58-7.9,31.3,31.3,0,0,0-2.636-8.709l-7.954-19.3c-1.445-3.483-2.9-7.019-4.644-10.381C919.434,615.964,909.994,604.683,897.749,605.444Z" transform="translate(-372.515 -308.241)" fill="#3f3d56"/>
  <path id="Path_444" data-name="Path 444" d="M864.945,356.571a8.709,8.709,0,0,1,9.115-5.556,16.921,16.921,0,0,1,6.386,2.839l11.089,6.92a48.329,48.329,0,0,1,5.277,3.634c7.646,6.34,10.6,16.761,11.437,26.66s0,19.966,1.968,29.7c-4.679,3.878-9.87,7.158-14.549,11.031a36.561,36.561,0,0,0-6.787,6.671c-1.475,2.049-2.526,4.395-4.064,6.386a15.362,15.362,0,0,1-10.177,5.655c2.537,1.475,3.959,4.337,4.645,7.188s.871,5.806,1.631,8.656c1.045,3.872,3.211,7.408,3.925,11.356.5,2.723.279,5.515.459,8.279.906,14.3,12.128,26.8,11.4,41.1a62.333,62.333,0,0,1-14.9-7.832c-2.067-1.48-4.064-3.083-6.021-4.679L861,502.6c-7.193-5.806-14.456-11.739-20.175-19.031-3.588-4.575-6.514-9.637-10.114-14.2s-8.029-8.709-13.527-10.625c-.807,1.213-2.241,2.055-3.048,3.269a2.429,2.429,0,0,0-.337.627,2.746,2.746,0,0,0,.192,1.6,33.365,33.365,0,0,1,1.161,7.193l.366,4.366a14.873,14.873,0,0,1,0,3.483c-.551,3.733-4.012,6.63-7.745,7.211a3.368,3.368,0,0,1-1.631-.052,3.491,3.491,0,0,1-1.928-2.491c-1.469-4.958.784-10.189.964-15.35a36.894,36.894,0,0,0-.133-3.925l-.348-5.15c-3.373-.7-5.312-4.325-6.206-7.652-2.415-8.982-4.848-18.277-3.449-27.473.372-2.462,1.022-4.958.581-7.42-.581-3.292-2.949-5.962-4.2-9.063-4.064-10.108,4.569-21.081,3.768-31.932-.337-4.557-3.228-8.517-4.97-12.744a35.992,35.992,0,0,0-3.483-7.031,38.919,38.919,0,0,0-6.5-6.613,248.326,248.326,0,0,1-20.425-20.123,15.1,15.1,0,0,1-8.8-4.029,8.091,8.091,0,0,1-2.833-5.475c-.041-2.107,1.515-4.319,3.623-4.43a13.726,13.726,0,0,1,3.582.813c3.762.824,7.547-1.945,9.225-5.423s1.678-7.478,1.649-11.333a10.868,10.868,0,0,1,10.061,3.524c2.6,2.822,4.285,6.34,6.328,9.579a14.846,14.846,0,0,0,3.158,3.814c2.793,2.218,6.816,2.636,9.254,5.225,1.237,1.324,1.922,3.077,3.054,4.494,3.182,3.989,9,4.476,13.353,7.1s7.373,7.42,12.192,8.976c1.742.581,3.64.656,5.365,1.3,3.983,1.48,6.415,5.713,6.967,9.922s-.389,8.465-1.341,12.61l-2.235,9.7c-.494,2.148-.871,4.732.714,6.264A6.455,6.455,0,0,0,835.7,383.4c4.064,1.324,8.592,2.624,12.413.749a14.682,14.682,0,0,0,4.517-3.948C858.3,373.529,862.065,364.786,864.945,356.571Z" transform="translate(-332.627 -179.908)" fill="#6c63ff"/>
  <path id="Path_445" data-name="Path 445" d="M1010.283,699.259c-.8,5.312-3.727,10.537-8.517,12.97a12.192,12.192,0,0,1-9.225.639,9.567,9.567,0,0,1-5.126-3.843,10.976,10.976,0,0,1-1.376-3.222,1,1,0,0,0-.041-.18,25.556,25.556,0,0,1-.54-6.253,81.582,81.582,0,0,1,.581-9.748,52.774,52.774,0,0,1,1.6-8.058c1.08-3.768,2.636-7.4,4.064-11.031.743-1.916,1.457-3.838,2.044-5.806h0c.354-1.161.656-2.357.9-3.565l.087-.435c.046-.244.087-.488.128-.732.581-3.309.749-6.735,2.241-9.725,3.484-7.019,10.265-5.225,11.3,1.248a11.373,11.373,0,0,1,.134,1.515c.157,8.192-3.095,16.2-1.608,24.419a56.894,56.894,0,0,0,1.579,5.933c.523,1.794.993,3.611,1.353,5.452A30.985,30.985,0,0,1,1010.283,699.259Z" transform="translate(-432.14 -325.171)" fill="#be6f72"/>
  <path id="Path_446" data-name="Path 446" d="M1009.972,545.709c.157,3.356,0,6.752.674,10.044,1.573,7.78,7.547,14.665,6.886,22.573-.163,1.928-.877,4-2.56,4.952s-4.47.877-5.022,2.793c-.157.534-.075,1.115-.25,1.643-.366,1.126-1.742,1.608-2.9,1.579a31.916,31.916,0,0,0-3.524-.313c-4.209.354-5.753,5.986-9.5,7.919a7.177,7.177,0,0,1-7.89-1.341,9.827,9.827,0,0,1-2.833-7.757,57.618,57.618,0,0,1,1.161-6.322,43.855,43.855,0,0,0-.029-11.437c-.505-5.579-1.028-11.228-2.862-16.517-.865-2.5-2.015-4.883-2.763-7.414a43.114,43.114,0,0,1-1.422-11.083c-.226-7.855.313-16.256,5-22.573,3.524-4.737,8.575-8.587,12.564-12.97,2.5-2.746,3.216-3.605,5.974-1.277,2.27,1.91,4.645,4.546,4.9,7.135.7,6.636,0,13.162,1.242,19.919S1009.647,538.772,1009.972,545.709Z" transform="translate(-428.637 -262.714)" fill="#6c63ff"/>
  <circle id="Ellipse_64" data-name="Ellipse 64" cx="29.609" cy="29.609" r="29.609" transform="translate(491.509 95.905)" fill="#be6f72"/>
  <path id="Path_447" data-name="Path 447" d="M938,334.987a3.311,3.311,0,0,1,4.929-1.579l7.8,3.257a25.453,25.453,0,0,0,3.623-11.472c.163-2.491-.035-5.016.441-7.466.708-3.634,2.862-6.891,3.362-10.561.395-2.961-.319-5.939-.749-8.894-1.324-9.127.1-18.439-.662-27.63S952.295,251.6,944.1,247.384a76.852,76.852,0,0,0-7.24-2.775c-5.382-2.049-10.207-5.33-15.525-7.547s-11.565-3.234-16.721-.685-8.157,9.719-4.807,14.4a17.566,17.566,0,0,0,4.261,3.739c3.141,2.247,6.346,5.022,7.071,8.819,1.3,6.833-5.806,12.192-7.809,18.875a16.047,16.047,0,0,0-.192,8.006c.865,3.96,2.978,7.7,2.9,11.751-.058,4.441-2.717,8.465-3.216,12.883-.18,1.62-.07,3.263-.273,4.877a25.168,25.168,0,0,1-1.875,6.172c-4.645,11.611-9.353,23.345-16.256,33.784a44.744,44.744,0,0,0,21.266-4.97,35.146,35.146,0,0,1-5.324,12.506A40.291,40.291,0,0,0,917,361.409a54.058,54.058,0,0,1-5.283,12.546c.2-.337,3.849-1.161,4.523-1.544A7.878,7.878,0,0,0,919.434,369c1.974-3.53,3.2-7.785,5.034-11.455A166.824,166.824,0,0,1,938,334.987Z" transform="translate(-389.77 -152.831)" fill="#3f3d56"/>
  <path id="Path_448" data-name="Path 448" d="M581.46,101.258a27.486,27.486,0,0,1-4.232.1.923.923,0,0,0-1.016.8l-2.7,20.25a8.221,8.221,0,0,1-1.742,4.012A8.743,8.743,0,0,0,569.8,133.1v34.4s-.174,4.587,3.35,4.587a50.946,50.946,0,0,0,12.7,0s2.822-.534,2.822-4.767V133.451a8.285,8.285,0,0,0-1.742-6.735,8.43,8.43,0,0,1-1.689-3.989l-2.8-20.674A.923.923,0,0,0,581.46,101.258Z" transform="translate(-257.783 -96.788)" fill="#3f3d56"/>
  <rect id="Rectangle_14" data-name="Rectangle 14" width="17.11" height="28.93" rx="8.555" transform="translate(313 36.93)" fill="#6c63ff"/>
  <path id="Path_449" data-name="Path 449" d="M650.46,152.258a27.486,27.486,0,0,1-4.232.1.923.923,0,0,0-1.016.8l-2.7,20.25a8.221,8.221,0,0,1-1.742,4.012A8.743,8.743,0,0,0,638.8,184.1v34.4s-.174,4.587,3.35,4.587a50.946,50.946,0,0,0,12.7,0s2.822-.534,2.822-4.767V184.451a8.285,8.285,0,0,0-1.742-6.735,8.431,8.431,0,0,1-1.69-3.989l-2.8-20.674a.923.923,0,0,0-.981-.8Z" transform="translate(-286.724 -118.178)" fill="#3f3d56"/>
  <rect id="Rectangle_15" data-name="Rectangle 15" width="17.11" height="28.93" rx="8.555" transform="translate(353.059 66.54)" fill="#6c63ff"/>
  <g id="Group_7" data-name="Group 7" transform="translate(284.494 224.791)" opacity="0.2">
    <path id="Path_450" data-name="Path 450" d="M572.407,743.782a11.013,11.013,0,0,1-.215,1.864q-6.061-.964-12.192-1.742v-.5a9.8,9.8,0,0,1,1.451-4.923,5.4,5.4,0,0,1,9.829.3,9.793,9.793,0,0,1,1.126,5Z" transform="translate(-538.194 -587.582)" fill="#3f3d56"/>
    <ellipse id="Ellipse_65" data-name="Ellipse 65" cx="8.134" cy="6.212" rx="8.134" ry="6.212" transform="translate(21.865 154.025) rotate(-88.19)" fill="#3f3d56"/>
    <ellipse id="Ellipse_66" data-name="Ellipse 66" cx="8.134" cy="6.212" rx="8.134" ry="6.212" transform="translate(22.182 144.085) rotate(-88.19)" fill="#3f3d56"/>
    <ellipse id="Ellipse_67" data-name="Ellipse 67" cx="8.134" cy="6.212" rx="8.134" ry="6.212" transform="translate(22.493 134.146) rotate(-88.19)" fill="#3f3d56"/>
    <ellipse id="Ellipse_68" data-name="Ellipse 68" cx="8.134" cy="6.212" rx="8.134" ry="6.212" transform="translate(22.809 124.206) rotate(-88.19)" fill="#3f3d56"/>
    <path id="Path_451" data-name="Path 451" d="M530.586,528.24a28.822,28.822,0,0,1-2.206-3.483l16.407-2.166-17.661-.424a29.83,29.83,0,0,1,.18-23.595L550.6,511.606l-21.336-16.744A29.772,29.772,0,1,1,577.357,529.7a29.5,29.5,0,0,1,3.222,5.533l-21.534,10.334,22.834-6.868a29.807,29.807,0,0,1-5.7,27.815,29.772,29.772,0,1,1-46.771-1.475,29.772,29.772,0,0,1,1.161-36.8Z" transform="translate(-522.44 -480.747)" fill="#6c63ff"/>
    <path id="Path_452" data-name="Path 452" d="M583.145,596.781a29.609,29.609,0,0,1-6.967,18.2,29.772,29.772,0,1,1-46.771-1.475C525.593,608.317,583.25,593.443,583.145,596.781Z" transform="translate(-522.44 -529.212)" opacity="0.1"/>
  </g>
</svg>
